<svg xmlns="http://www.w3.org/2000/svg" xmlns:xlink="http://www.w3.org/1999/xlink" xmlns:lucid="lucid" width="1000" height="460"><g transform="translate(-219.99999999999955 -120)" lucid:page-tab-id="0_0"><path d="M240 490c0-5.52 4.48-10 10-10h940c5.52 0 10 4.48 10 10v60c0 5.52-4.48 10-10 10H250c-5.52 0-10-4.48-10-10z" stroke="#c1e4f7" stroke-width="2" fill="#c1e4f7"/><path d="M240 350c0-5.52 4.48-10 10-10h940c5.52 0 10 4.48 10 10v68.67c0 5.52-4.48 10-10 10H250c-5.52 0-10-4.48-10-10z" stroke="#99d2f2" stroke-width="2" fill="#99d2f2"/><path d="M240 150c0-5.52 4.48-10 10-10h940c5.52 0 10 4.48 10 10v20c0 5.52-4.48 10-10 10H250c-5.52 0-10-4.48-10-10z" stroke="#fcc438" stroke-width="2" fill="#fcc438"/><use xlink:href="#a" transform="matrix(1,0,0,1,245,145) translate(327.1 18.6)"/><use xlink:href="#b" transform="matrix(1,0,0,1,245,145) translate(388.1 18.6)"/><use xlink:href="#c" transform="matrix(1,0,0,1,245,145) translate(422.1 18.6)"/><use xlink:href="#d" transform="matrix(1,0,0,1,245,145) translate(484 18.6)"/><use xlink:href="#e" transform="matrix(1,0,0,1,245,145) translate(534 18.6)"/><use xlink:href="#f" transform="matrix(1,0,0,1,245,145) translate(572.95 18.6)"/><use xlink:href="#g" transform="matrix(1,0,0,1,245,145) translate(601.95 18.6)"/><path d="M240 250c0-5.52 4.48-10 10-10h940c5.52 0 10 4.48 10 10v20c0 5.52-4.48 10-10 10H250c-5.52 0-10-4.48-10-10z" stroke="#ffeca9" stroke-width="2" fill="#ffeca9"/><use xlink:href="#a" transform="matrix(1,0,0,1,244.9999999999999,245) translate(378.15 18.6)"/><use xlink:href="#h" transform="matrix(1,0,0,1,244.9999999999999,245) translate(439.15 18.6)"/><use xlink:href="#i" transform="matrix(1,0,0,1,244.9999999999999,245) translate(527 18.6)"/><path d="M240 390c0-5.52 4.48-10 10-10h220c5.52 0 10 4.48 10 10v20c0 5.52-4.48 10-10 10H250c-5.52 0-10-4.48-10-10z" stroke="#99d2f2" stroke-width="2" fill="#99d2f2"/><use xlink:href="#j" transform="matrix(1,0,0,1,244.99999999999977,385) translate(91.025 18.6)"/><path d="M480 390c0-5.52 4.48-10 10-10h220c5.52 0 10 4.48 10 10v20c0 5.52-4.48 10-10 10H490c-5.52 0-10-4.48-10-10z" stroke="#99d2f2" stroke-width="2" fill="#99d2f2"/><use xlink:href="#k" transform="matrix(1,0,0,1,484.9999999999998,385) translate(52.574999999999996 18.6)"/><path d="M720 390c0-5.52 4.48-10 10-10h220c5.52 0 10 4.48 10 10v20c0 5.52-4.48 10-10 10H730c-5.52 0-10-4.48-10-10z" stroke="#99d2f2" stroke-width="2" fill="#99d2f2"/><use xlink:href="#l" transform="matrix(1,0,0,1,724.9999999999998,385) translate(52.074999999999996 18.6)"/><path d="M240 530c0-5.52 4.48-10 10-10h220c5.52 0 10 4.48 10 10v20c0 5.52-4.48 10-10 10H250c-5.52 0-10-4.48-10-10z" stroke="#c1e4f7" stroke-width="2" fill="#c1e4f7"/><use xlink:href="#m" transform="matrix(1,0,0,1,245,525) translate(61.6 18.6)"/><path d="M480 530c0-5.52 4.48-10 10-10h220c5.52 0 10 4.48 10 10v20c0 5.52-4.48 10-10 10H490c-5.52 0-10-4.48-10-10z" stroke="#c1e4f7" stroke-width="2" fill="#c1e4f7"/><use xlink:href="#n" transform="matrix(1,0,0,1,485,525) translate(79.55 18.6)"/><path d="M720 530c0-5.52 4.48-10 10-10h220c5.52 0 10 4.48 10 10v20c0 5.52-4.48 10-10 10H730c-5.52 0-10-4.48-10-10z" stroke="#c1e4f7" stroke-width="2" fill="#c1e4f7"/><use xlink:href="#o" transform="matrix(1,0,0,1,725,525) translate(40.75 18.6)"/><path d="M960 530c0-5.52 4.48-10 10-10h220c5.52 0 10 4.48 10 10v20c0 5.52-4.48 10-10 10H970c-5.52 0-10-4.48-10-10z" stroke="#c1e4f7" stroke-width="2" fill="#c1e4f7"/><use xlink:href="#p" transform="matrix(1,0,0,1,965,525) translate(93 18.6)"/><use xlink:href="#q" transform="matrix(1,0,0,1,965,525) translate(122 18.6)"/><path d="M960 390c0-5.52 4.48-10 10-10h220c5.52 0 10 4.48 10 10v20c0 5.52-4.48 10-10 10H970c-5.52 0-10-4.48-10-10z" stroke="#99d2f2" stroke-width="2" fill="#99d2f2"/><g><use xlink:href="#p" transform="matrix(1,0,0,1,964.9999999999998,385) translate(93 18.6)"/><use xlink:href="#q" transform="matrix(1,0,0,1,964.9999999999998,385) translate(122 18.6)"/></g><path d="M240 490c0-5.52 4.48-10 10-10h940c5.52 0 10 4.48 10 10v20c0 5.52-4.48 10-10 10H250c-5.52 0-10-4.48-10-10z" stroke="#99d2f2" stroke-width="2" fill="#99d2f2"/><g><use xlink:href="#r" transform="matrix(1,0,0,1,245.00000000000006,485) translate(387.05 18.6)"/><use xlink:href="#s" transform="matrix(1,0,0,1,245.00000000000006,485) translate(427.25 18.6)"/><use xlink:href="#t" transform="matrix(1,0,0,1,245.00000000000006,485) translate(462.25 18.6)"/><use xlink:href="#u" transform="matrix(1,0,0,1,245.00000000000006,485) translate(501.20000000000005 18.6)"/></g><path d="M240 350c0-5.52 4.48-10 10-10h940c5.52 0 10 4.48 10 10v20c0 5.52-4.48 10-10 10H250c-5.52 0-10-4.48-10-10z" stroke="#3aa6dd" stroke-width="2" fill="#3aa6dd"/><g><use xlink:href="#v" transform="matrix(1,0,0,1,244.99999999999972,345) translate(381.275 18.6)"/><use xlink:href="#w" transform="matrix(1,0,0,1,244.99999999999972,345) translate(420.22499999999997 18.6)"/><use xlink:href="#x" transform="matrix(1,0,0,1,244.99999999999972,345) translate(440.22499999999997 18.6)"/><use xlink:href="#y" transform="matrix(1,0,0,1,244.99999999999972,345) translate(501.22499999999997 18.6)"/></g><g><path d="M730.67 180v40.8h10.66L720 240l-21.33-19.2h10.66V180z" stroke="#fcc438" stroke-width="2" fill="#fcc438"/></g><g><path d="M732 280v40.8h10.67L721.33 340 700 320.8h10.67V280z" stroke="#ffeca9" stroke-width="2" fill="#ffeca9"/></g><g><path d="M730.67 420v40.8h10.66L720 480l-21.33-19.2h10.66V420z" stroke="#99d2f2" stroke-width="2" fill="#99d2f2"/></g><defs><path d="M30-248c87 1 191-15 191 75 0 78-77 80-158 76V0H30v-248zm33 125c57 0 124 11 124-50 0-59-68-47-124-48v98" id="z"/><path d="M179-190L93 31C79 59 56 82 12 73V49c39 6 53-20 64-50L1-190h34L92-34l54-156h33" id="A"/><path d="M59-47c-2 24 18 29 38 22v24C64 9 27 4 27-40v-127H5v-23h24l9-43h21v43h35v23H59v120" id="B"/><path d="M106-169C34-169 62-67 57 0H25v-261h32l-1 103c12-21 28-36 61-36 89 0 53 116 60 194h-32v-121c2-32-8-49-39-48" id="C"/><path d="M100-194c62-1 85 37 85 99 1 63-27 99-86 99S16-35 15-95c0-66 28-99 85-99zM99-20c44 1 53-31 53-75 0-43-8-75-51-75s-53 32-53 75 10 74 51 75" id="D"/><path d="M117-194c89-4 53 116 60 194h-32v-121c0-31-8-49-39-48C34-167 62-67 57 0H25l-1-190h30c1 10-1 24 2 32 11-22 29-35 61-36" id="E"/><g id="a"><use transform="matrix(0.05,0,0,0.05,0,0)" xlink:href="#z"/><use transform="matrix(0.05,0,0,0.05,12,0)" xlink:href="#A"/><use transform="matrix(0.05,0,0,0.05,21,0)" xlink:href="#B"/><use transform="matrix(0.05,0,0,0.05,26,0)" xlink:href="#C"/><use transform="matrix(0.05,0,0,0.05,36,0)" xlink:href="#D"/><use transform="matrix(0.05,0,0,0.05,46,0)" xlink:href="#E"/></g><path d="M205 0l-28-72H64L36 0H1l101-248h38L239 0h-34zm-38-99l-47-123c-12 45-31 82-46 123h93" id="F"/><path d="M33 0v-248h34V0H33" id="G"/><g id="b"><use transform="matrix(0.05,0,0,0.05,0,0)" xlink:href="#F"/><use transform="matrix(0.05,0,0,0.05,12,0)" xlink:href="#z"/><use transform="matrix(0.05,0,0,0.05,24,0)" xlink:href="#G"/></g><path d="M87 75C49 33 22-17 22-94c0-76 28-126 65-167h31c-38 41-64 92-64 168S80 34 118 75H87" id="H"/><path d="M115-194c55 1 70 41 70 98S169 2 115 4C84 4 66-9 55-30l1 105H24l-1-265h31l2 30c10-21 28-34 59-34zm-8 174c40 0 45-34 45-75s-6-73-45-74c-42 0-51 32-51 76 0 43 10 73 51 73" id="I"/><path d="M114-163C36-179 61-72 57 0H25l-1-190h30c1 12-1 29 2 39 6-27 23-49 58-41v29" id="J"/><path d="M115-194c53 0 69 39 70 98 0 66-23 100-70 100C84 3 66-7 56-30L54 0H23l1-261h32v101c10-23 28-34 59-34zm-8 174c40 0 45-34 45-75 0-40-5-75-45-74-42 0-51 32-51 76 0 43 10 73 51 73" id="K"/><path d="M100-194c63 0 86 42 84 106H49c0 40 14 67 53 68 26 1 43-12 49-29l28 8c-11 28-37 45-77 45C44 4 14-33 15-96c1-61 26-98 85-98zm52 81c6-60-76-77-97-28-3 7-6 17-6 28h103" id="L"/><path d="M68-38c1 34 0 65-14 84H32c9-13 17-26 17-46H33v-38h35" id="M"/><g id="c"><use transform="matrix(0.05,0,0,0.05,0,0)" xlink:href="#H"/><use transform="matrix(0.05,0,0,0.05,5.95,0)" xlink:href="#I"/><use transform="matrix(0.05,0,0,0.05,15.949999999999998,0)" xlink:href="#J"/><use transform="matrix(0.05,0,0,0.05,21.9,0)" xlink:href="#D"/><use transform="matrix(0.05,0,0,0.05,31.899999999999995,0)" xlink:href="#K"/><use transform="matrix(0.05,0,0,0.05,41.9,0)" xlink:href="#L"/><use transform="matrix(0.05,0,0,0.05,51.900000000000006,0)" xlink:href="#M"/></g><g id="d"><use transform="matrix(0.05,0,0,0.05,0,0)" xlink:href="#D"/><use transform="matrix(0.05,0,0,0.05,10,0)" xlink:href="#I"/><use transform="matrix(0.05,0,0,0.05,20,0)" xlink:href="#L"/><use transform="matrix(0.05,0,0,0.05,30,0)" xlink:href="#E"/><use transform="matrix(0.05,0,0,0.05,40,0)" xlink:href="#M"/></g><path d="M24-231v-30h32v30H24zM24 0v-190h32V0H24" id="N"/><path d="M101-234c-31-9-42 10-38 44h38v23H63V0H32v-167H5v-23h27c-7-52 17-82 69-68v24" id="O"/><g id="e"><use transform="matrix(0.05,0,0,0.05,0,0)" xlink:href="#N"/><use transform="matrix(0.05,0,0,0.05,3.95,0)" xlink:href="#E"/><use transform="matrix(0.05,0,0,0.05,13.949999999999998,0)" xlink:href="#O"/><use transform="matrix(0.05,0,0,0.05,18.95,0)" xlink:href="#D"/><use transform="matrix(0.05,0,0,0.05,28.950000000000003,0)" xlink:href="#M"/></g><path d="M96-169c-40 0-48 33-48 73s9 75 48 75c24 0 41-14 43-38l32 2c-6 37-31 61-74 61-59 0-76-41-82-99-10-93 101-131 147-64 4 7 5 14 7 22l-32 3c-4-21-16-35-41-35" id="P"/><g id="f"><use transform="matrix(0.05,0,0,0.05,0,0)" xlink:href="#L"/><use transform="matrix(0.05,0,0,0.05,10,0)" xlink:href="#B"/><use transform="matrix(0.05,0,0,0.05,15,0)" xlink:href="#P"/></g><path d="M33 0v-38h34V0H33" id="Q"/><path d="M33-261c38 41 65 92 65 168S71 34 33 75H2C39 34 66-17 66-93S39-220 2-261h31" id="R"/><g id="g"><use transform="matrix(0.05,0,0,0.05,0,0)" xlink:href="#Q"/><use transform="matrix(0.05,0,0,0.05,5,0)" xlink:href="#Q"/><use transform="matrix(0.05,0,0,0.05,10,0)" xlink:href="#Q"/><use transform="matrix(0.05,0,0,0.05,15,0)" xlink:href="#R"/></g><g id="h"><use transform="matrix(0.05,0,0,0.05,0,0)" xlink:href="#G"/><use transform="matrix(0.05,0,0,0.05,5,0)" xlink:href="#E"/><use transform="matrix(0.05,0,0,0.05,15,0)" xlink:href="#B"/><use transform="matrix(0.05,0,0,0.05,20,0)" xlink:href="#L"/><use transform="matrix(0.05,0,0,0.05,30,0)" xlink:href="#J"/><use transform="matrix(0.05,0,0,0.05,35.95,0)" xlink:href="#I"/><use transform="matrix(0.05,0,0,0.05,45.95,0)" xlink:href="#J"/><use transform="matrix(0.05,0,0,0.05,51.900000000000006,0)" xlink:href="#L"/><use transform="matrix(0.05,0,0,0.05,61.900000000000006,0)" xlink:href="#B"/><use transform="matrix(0.05,0,0,0.05,66.9,0)" xlink:href="#L"/><use transform="matrix(0.05,0,0,0.05,76.9,0)" xlink:href="#J"/></g><path d="M212-179c-10-28-35-45-73-45-59 0-87 40-87 99 0 60 29 101 89 101 43 0 62-24 78-52l27 14C228-24 195 4 139 4 59 4 22-46 18-125c-6-104 99-153 187-111 19 9 31 26 39 46" id="S"/><path d="M118-107v75H92v-75H18v-26h74v-75h26v75h74v26h-74" id="T"/><g id="i"><use transform="matrix(0.05,0,0,0.05,0,0)" xlink:href="#H"/><use transform="matrix(0.05,0,0,0.05,5.95,0)" xlink:href="#S"/><use transform="matrix(0.05,0,0,0.05,18.900000000000002,0)" xlink:href="#T"/><use transform="matrix(0.05,0,0,0.05,29.400000000000002,0)" xlink:href="#T"/><use transform="matrix(0.05,0,0,0.05,39.900000000000006,0)" xlink:href="#R"/></g><path d="M141-36C126-15 110 5 73 4 37 3 15-17 15-53c-1-64 63-63 125-63 3-35-9-54-41-54-24 1-41 7-42 31l-33-3c5-37 33-52 76-52 45 0 72 20 72 64v82c-1 20 7 32 28 27v20c-31 9-61-2-59-35zM48-53c0 20 12 33 32 33 41-3 63-29 60-74-43 2-92-5-92 41" id="U"/><path d="M24 0v-261h32V0H24" id="V"/><path d="M135-143c-3-34-86-38-87 0 15 53 115 12 119 90S17 21 10-45l28-5c4 36 97 45 98 0-10-56-113-15-118-90-4-57 82-63 122-42 12 7 21 19 24 35" id="W"/><g id="j"><use transform="matrix(0.05,0,0,0.05,0,0)" xlink:href="#C"/><use transform="matrix(0.05,0,0,0.05,10,0)" xlink:href="#U"/><use transform="matrix(0.05,0,0,0.05,20,0)" xlink:href="#V"/><use transform="matrix(0.05,0,0,0.05,23.95,0)" xlink:href="#Q"/><use transform="matrix(0.05,0,0,0.05,28.950000000000003,0)" xlink:href="#W"/><use transform="matrix(0.05,0,0,0.05,37.95,0)" xlink:href="#D"/></g><path d="M206 0h-36l-40-164L89 0H53L-1-190h32L70-26l43-164h34l41 164 42-164h31" id="X"/><path d="M-5 72V49h209v23H-5" id="Y"/><path d="M210-169c-67 3-38 105-44 169h-31v-121c0-29-5-50-35-48C34-165 62-65 56 0H25l-1-190h30c1 10-1 24 2 32 10-44 99-50 107 0 11-21 27-35 58-36 85-2 47 119 55 194h-31v-121c0-29-5-49-35-48" id="Z"/><path d="M84 4C-5 8 30-112 23-190h32v120c0 31 7 50 39 49 72-2 45-101 50-169h31l1 190h-30c-1-10 1-25-2-33-11 22-28 36-60 37" id="aa"/><g id="k"><use transform="matrix(0.05,0,0,0.05,0,0)" xlink:href="#W"/><use transform="matrix(0.05,0,0,0.05,9,0)" xlink:href="#X"/><use transform="matrix(0.05,0,0,0.05,21.950000000000003,0)" xlink:href="#Y"/><use transform="matrix(0.05,0,0,0.05,31.950000000000003,0)" xlink:href="#L"/><use transform="matrix(0.05,0,0,0.05,41.95,0)" xlink:href="#Z"/><use transform="matrix(0.05,0,0,0.05,56.900000000000006,0)" xlink:href="#aa"/><use transform="matrix(0.05,0,0,0.05,66.9,0)" xlink:href="#Y"/><use transform="matrix(0.05,0,0,0.05,76.9,0)" xlink:href="#C"/><use transform="matrix(0.05,0,0,0.05,86.9,0)" xlink:href="#U"/><use transform="matrix(0.05,0,0,0.05,96.9,0)" xlink:href="#V"/><use transform="matrix(0.05,0,0,0.05,100.85000000000001,0)" xlink:href="#Q"/><use transform="matrix(0.05,0,0,0.05,105.85000000000001,0)" xlink:href="#W"/><use transform="matrix(0.05,0,0,0.05,114.85000000000001,0)" xlink:href="#D"/></g><g id="l"><use transform="matrix(0.05,0,0,0.05,0,0)" xlink:href="#C"/><use transform="matrix(0.05,0,0,0.05,10,0)" xlink:href="#X"/><use transform="matrix(0.05,0,0,0.05,22.950000000000003,0)" xlink:href="#Y"/><use transform="matrix(0.05,0,0,0.05,32.95,0)" xlink:href="#L"/><use transform="matrix(0.05,0,0,0.05,42.95,0)" xlink:href="#Z"/><use transform="matrix(0.05,0,0,0.05,57.900000000000006,0)" xlink:href="#aa"/><use transform="matrix(0.05,0,0,0.05,67.9,0)" xlink:href="#Y"/><use transform="matrix(0.05,0,0,0.05,77.9,0)" xlink:href="#C"/><use transform="matrix(0.05,0,0,0.05,87.9,0)" xlink:href="#U"/><use transform="matrix(0.05,0,0,0.05,97.9,0)" xlink:href="#V"/><use transform="matrix(0.05,0,0,0.05,101.85000000000001,0)" xlink:href="#Q"/><use transform="matrix(0.05,0,0,0.05,106.85000000000001,0)" xlink:href="#W"/><use transform="matrix(0.05,0,0,0.05,115.85000000000001,0)" xlink:href="#D"/></g><path d="M141 0L90-78 38 0H4l68-98-65-92h35l48 74 47-74h35l-64 92 68 98h-35" id="ab"/><g id="m"><use transform="matrix(0.05,0,0,0.05,0,0)" xlink:href="#V"/><use transform="matrix(0.05,0,0,0.05,3.95,0)" xlink:href="#N"/><use transform="matrix(0.05,0,0,0.05,7.9,0)" xlink:href="#K"/><use transform="matrix(0.05,0,0,0.05,17.9,0)" xlink:href="#ab"/><use transform="matrix(0.05,0,0,0.05,26.899999999999995,0)" xlink:href="#J"/><use transform="matrix(0.05,0,0,0.05,32.85,0)" xlink:href="#B"/><use transform="matrix(0.05,0,0,0.05,37.85,0)" xlink:href="#Y"/><use transform="matrix(0.05,0,0,0.05,47.85,0)" xlink:href="#P"/><use transform="matrix(0.05,0,0,0.05,56.85,0)" xlink:href="#D"/><use transform="matrix(0.05,0,0,0.05,66.85,0)" xlink:href="#J"/><use transform="matrix(0.05,0,0,0.05,72.8,0)" xlink:href="#L"/><use transform="matrix(0.05,0,0,0.05,82.8,0)" xlink:href="#Q"/><use transform="matrix(0.05,0,0,0.05,87.8,0)" xlink:href="#W"/><use transform="matrix(0.05,0,0,0.05,96.8,0)" xlink:href="#D"/></g><path d="M85-194c31 0 48 13 60 33l-1-100h32l1 261h-30c-2-10 0-23-3-31C134-8 116 4 85 4 32 4 16-35 15-94c0-66 23-100 70-100zm9 24c-40 0-46 34-46 75 0 40 6 74 45 74 42 0 51-32 51-76 0-42-9-74-50-73" id="ac"/><g id="n"><use transform="matrix(0.05,0,0,0.05,0,0)" xlink:href="#V"/><use transform="matrix(0.05,0,0,0.05,3.95,0)" xlink:href="#N"/><use transform="matrix(0.05,0,0,0.05,7.9,0)" xlink:href="#K"/><use transform="matrix(0.05,0,0,0.05,17.9,0)" xlink:href="#ab"/><use transform="matrix(0.05,0,0,0.05,26.899999999999995,0)" xlink:href="#ac"/><use transform="matrix(0.05,0,0,0.05,36.9,0)" xlink:href="#I"/><use transform="matrix(0.05,0,0,0.05,46.9,0)" xlink:href="#Q"/><use transform="matrix(0.05,0,0,0.05,51.900000000000006,0)" xlink:href="#W"/><use transform="matrix(0.05,0,0,0.05,60.900000000000006,0)" xlink:href="#D"/></g><g id="o"><use transform="matrix(0.05,0,0,0.05,0,0)" xlink:href="#V"/><use transform="matrix(0.05,0,0,0.05,3.95,0)" xlink:href="#N"/><use transform="matrix(0.05,0,0,0.05,7.9,0)" xlink:href="#K"/><use transform="matrix(0.05,0,0,0.05,17.9,0)" xlink:href="#K"/><use transform="matrix(0.05,0,0,0.05,27.899999999999995,0)" xlink:href="#D"/><use transform="matrix(0.05,0,0,0.05,37.9,0)" xlink:href="#D"/><use transform="matrix(0.05,0,0,0.05,47.9,0)" xlink:href="#W"/><use transform="matrix(0.05,0,0,0.05,56.900000000000006,0)" xlink:href="#B"/><use transform="matrix(0.05,0,0,0.05,61.900000000000006,0)" xlink:href="#Y"/><use transform="matrix(0.05,0,0,0.05,71.9,0)" xlink:href="#E"/><use transform="matrix(0.05,0,0,0.05,81.9,0)" xlink:href="#aa"/><use transform="matrix(0.05,0,0,0.05,91.9,0)" xlink:href="#Z"/><use transform="matrix(0.05,0,0,0.05,106.85000000000001,0)" xlink:href="#I"/><use transform="matrix(0.05,0,0,0.05,116.85000000000001,0)" xlink:href="#A"/><use transform="matrix(0.05,0,0,0.05,124.5,0)" xlink:href="#Q"/><use transform="matrix(0.05,0,0,0.05,129.5,0)" xlink:href="#W"/><use transform="matrix(0.05,0,0,0.05,138.5,0)" xlink:href="#D"/></g><g id="p"><use transform="matrix(0.05,0,0,0.05,0,0)" xlink:href="#L"/><use transform="matrix(0.05,0,0,0.05,10,0)" xlink:href="#B"/><use transform="matrix(0.05,0,0,0.05,15,0)" xlink:href="#P"/></g><g id="q"><use transform="matrix(0.05,0,0,0.05,0,0)" xlink:href="#Q"/><use transform="matrix(0.05,0,0,0.05,5,0)" xlink:href="#Q"/><use transform="matrix(0.05,0,0,0.05,10,0)" xlink:href="#Q"/></g><path d="M195 0l-74-108L45 0H8l94-129-87-119h37l69 98 67-98h37l-84 118L233 0h-38" id="ad"/><path d="M233-177c-1 41-23 64-60 70L243 0h-38l-65-103H63V0H30v-248c88 3 205-21 203 71zM63-129c60-2 137 13 137-47 0-61-80-42-137-45v92" id="ae"/><path d="M127-220V0H93v-220H8v-28h204v28h-85" id="af"/><g id="r"><use transform="matrix(0.05,0,0,0.05,0,0)" xlink:href="#ad"/><use transform="matrix(0.05,0,0,0.05,12,0)" xlink:href="#ae"/><use transform="matrix(0.05,0,0,0.05,24.6,0)" xlink:href="#af"/></g><g id="s"><use transform="matrix(0.05,0,0,0.05,0,0)" xlink:href="#U"/><use transform="matrix(0.05,0,0,0.05,10,0)" xlink:href="#E"/><use transform="matrix(0.05,0,0,0.05,20,0)" xlink:href="#ac"/></g><g id="t"><use transform="matrix(0.05,0,0,0.05,0,0)" xlink:href="#S"/><use transform="matrix(0.05,0,0,0.05,12.950000000000001,0)" xlink:href="#T"/><use transform="matrix(0.05,0,0,0.05,23.450000000000003,0)" xlink:href="#T"/></g><g id="u"><use transform="matrix(0.05,0,0,0.05,0,0)" xlink:href="#V"/><use transform="matrix(0.05,0,0,0.05,3.95,0)" xlink:href="#N"/><use transform="matrix(0.05,0,0,0.05,7.9,0)" xlink:href="#K"/><use transform="matrix(0.05,0,0,0.05,17.9,0)" xlink:href="#J"/><use transform="matrix(0.05,0,0,0.05,23.849999999999998,0)" xlink:href="#U"/><use transform="matrix(0.05,0,0,0.05,33.849999999999994,0)" xlink:href="#J"/><use transform="matrix(0.05,0,0,0.05,39.8,0)" xlink:href="#N"/><use transform="matrix(0.05,0,0,0.05,43.75,0)" xlink:href="#L"/><use transform="matrix(0.05,0,0,0.05,53.75,0)" xlink:href="#W"/></g><g id="v"><use transform="matrix(0.05,0,0,0.05,0,0)" xlink:href="#S"/><use transform="matrix(0.05,0,0,0.05,12.950000000000001,0)" xlink:href="#T"/><use transform="matrix(0.05,0,0,0.05,23.450000000000003,0)" xlink:href="#T"/></g><g id="w"><use transform="matrix(0.05,0,0,0.05,0,0)" xlink:href="#B"/><use transform="matrix(0.05,0,0,0.05,5,0)" xlink:href="#D"/></g><g id="x"><use transform="matrix(0.05,0,0,0.05,0,0)" xlink:href="#z"/><use transform="matrix(0.05,0,0,0.05,12,0)" xlink:href="#A"/><use transform="matrix(0.05,0,0,0.05,21,0)" xlink:href="#B"/><use transform="matrix(0.05,0,0,0.05,26,0)" xlink:href="#C"/><use transform="matrix(0.05,0,0,0.05,36,0)" xlink:href="#D"/><use transform="matrix(0.05,0,0,0.05,46,0)" xlink:href="#E"/></g><path d="M266 0h-40l-56-210L115 0H75L2-248h35L96-30l15-64 43-154h32l59 218 59-218h35" id="ag"/><g id="y"><use transform="matrix(0.05,0,0,0.05,0,0)" xlink:href="#ag"/><use transform="matrix(0.05,0,0,0.05,16.599999999999998,0)" xlink:href="#J"/><use transform="matrix(0.05,0,0,0.05,22.549999999999997,0)" xlink:href="#U"/><use transform="matrix(0.05,0,0,0.05,32.55,0)" xlink:href="#I"/><use transform="matrix(0.05,0,0,0.05,42.55,0)" xlink:href="#I"/><use transform="matrix(0.05,0,0,0.05,52.54999999999999,0)" xlink:href="#L"/><use transform="matrix(0.05,0,0,0.05,62.54999999999999,0)" xlink:href="#J"/></g></defs></g></svg>