<svg xmlns="http://www.w3.org/2000/svg" xmlns:xlink="http://www.w3.org/1999/xlink" xmlns:lucid="lucid" width="1000" height="200"><g transform="translate(-219.99999999999994 -220)" lucid:page-tab-id="0_0"><path d="M240 240h960v40H240z" stroke="#000" stroke-width="2" fill="#ffeca9"/><use xlink:href="#a" transform="matrix(1,0,0,1,245,245) translate(327.1 18.6)"/><use xlink:href="#b" transform="matrix(1,0,0,1,245,245) translate(388.1 18.6)"/><use xlink:href="#c" transform="matrix(1,0,0,1,245,245) translate(422.1 18.6)"/><use xlink:href="#d" transform="matrix(1,0,0,1,245,245) translate(484 18.6)"/><use xlink:href="#e" transform="matrix(1,0,0,1,245,245) translate(534 18.6)"/><use xlink:href="#f" transform="matrix(1,0,0,1,245,245) translate(572.95 18.6)"/><use xlink:href="#g" transform="matrix(1,0,0,1,245,245) translate(601.95 18.6)"/><path d="M240 280h960v40H240z" stroke="#000" stroke-width="2" fill="#3aa6dd"/><use xlink:href="#a" transform="matrix(1,0,0,1,244.99999999999994,285) translate(378.15 18.6)"/><use xlink:href="#h" transform="matrix(1,0,0,1,244.99999999999994,285) translate(439.15 18.6)"/><use xlink:href="#i" transform="matrix(1,0,0,1,244.99999999999994,285) translate(527 18.6)"/><path d="M240 320h240v40H240z" stroke="#000" stroke-width="2" fill="#99d2f2"/><use xlink:href="#j" transform="matrix(1,0,0,1,245,325) translate(91.025 18.6)"/><path d="M480 320h240v40H480z" stroke="#000" stroke-width="2" fill="#99d2f2"/><use xlink:href="#k" transform="matrix(1,0,0,1,485,325) translate(52.574999999999996 18.6)"/><path d="M720 320h240v40H720z" stroke="#000" stroke-width="2" fill="#99d2f2"/><use xlink:href="#l" transform="matrix(1,0,0,1,725,325) translate(52.074999999999996 18.6)"/><path d="M240 360h240v40H240z" stroke="#000" stroke-width="2" fill="#c1e4f7"/><use xlink:href="#m" transform="matrix(1,0,0,1,245,365) translate(61.6 18.6)"/><path d="M480 360h240v40H480z" stroke="#000" stroke-width="2" fill="#c1e4f7"/><g><use xlink:href="#n" transform="matrix(1,0,0,1,485,365) translate(79.55 18.6)"/></g><path d="M720 360h240v40H720z" stroke="#000" stroke-width="2" fill="#c1e4f7"/><g><use xlink:href="#o" transform="matrix(1,0,0,1,725,365) translate(40.75 18.6)"/></g><path d="M960 360h240v40H960z" stroke="#000" stroke-width="2" fill="#c1e4f7"/><g><use xlink:href="#p" transform="matrix(1,0,0,1,965,365) translate(93 18.6)"/><use xlink:href="#q" transform="matrix(1,0,0,1,965,365) translate(122 18.6)"/></g><path d="M960 320h240v40H960z" stroke="#000" stroke-width="2" fill="#99d2f2"/><g><use xlink:href="#p" transform="matrix(1,0,0,1,965,325) translate(93 18.6)"/><use xlink:href="#q" transform="matrix(1,0,0,1,965,325) translate(122 18.6)"/></g><defs><path d="M30-248c87 1 191-15 191 75 0 78-77 80-158 76V0H30v-248zm33 125c57 0 124 11 124-50 0-59-68-47-124-48v98" id="r"/><path d="M179-190L93 31C79 59 56 82 12 73V49c39 6 53-20 64-50L1-190h34L92-34l54-156h33" id="s"/><path d="M59-47c-2 24 18 29 38 22v24C64 9 27 4 27-40v-127H5v-23h24l9-43h21v43h35v23H59v120" id="t"/><path d="M106-169C34-169 62-67 57 0H25v-261h32l-1 103c12-21 28-36 61-36 89 0 53 116 60 194h-32v-121c2-32-8-49-39-48" id="u"/><path d="M100-194c62-1 85 37 85 99 1 63-27 99-86 99S16-35 15-95c0-66 28-99 85-99zM99-20c44 1 53-31 53-75 0-43-8-75-51-75s-53 32-53 75 10 74 51 75" id="v"/><path d="M117-194c89-4 53 116 60 194h-32v-121c0-31-8-49-39-48C34-167 62-67 57 0H25l-1-190h30c1 10-1 24 2 32 11-22 29-35 61-36" id="w"/><g id="a"><use transform="matrix(0.05,0,0,0.05,0,0)" xlink:href="#r"/><use transform="matrix(0.05,0,0,0.05,12,0)" xlink:href="#s"/><use transform="matrix(0.05,0,0,0.05,21,0)" xlink:href="#t"/><use transform="matrix(0.05,0,0,0.05,26,0)" xlink:href="#u"/><use transform="matrix(0.05,0,0,0.05,36,0)" xlink:href="#v"/><use transform="matrix(0.05,0,0,0.05,46,0)" xlink:href="#w"/></g><path d="M205 0l-28-72H64L36 0H1l101-248h38L239 0h-34zm-38-99l-47-123c-12 45-31 82-46 123h93" id="x"/><path d="M33 0v-248h34V0H33" id="y"/><g id="b"><use transform="matrix(0.05,0,0,0.05,0,0)" xlink:href="#x"/><use transform="matrix(0.05,0,0,0.05,12,0)" xlink:href="#r"/><use transform="matrix(0.05,0,0,0.05,24,0)" xlink:href="#y"/></g><path d="M87 75C49 33 22-17 22-94c0-76 28-126 65-167h31c-38 41-64 92-64 168S80 34 118 75H87" id="z"/><path d="M115-194c55 1 70 41 70 98S169 2 115 4C84 4 66-9 55-30l1 105H24l-1-265h31l2 30c10-21 28-34 59-34zm-8 174c40 0 45-34 45-75s-6-73-45-74c-42 0-51 32-51 76 0 43 10 73 51 73" id="A"/><path d="M114-163C36-179 61-72 57 0H25l-1-190h30c1 12-1 29 2 39 6-27 23-49 58-41v29" id="B"/><path d="M115-194c53 0 69 39 70 98 0 66-23 100-70 100C84 3 66-7 56-30L54 0H23l1-261h32v101c10-23 28-34 59-34zm-8 174c40 0 45-34 45-75 0-40-5-75-45-74-42 0-51 32-51 76 0 43 10 73 51 73" id="C"/><path d="M100-194c63 0 86 42 84 106H49c0 40 14 67 53 68 26 1 43-12 49-29l28 8c-11 28-37 45-77 45C44 4 14-33 15-96c1-61 26-98 85-98zm52 81c6-60-76-77-97-28-3 7-6 17-6 28h103" id="D"/><path d="M68-38c1 34 0 65-14 84H32c9-13 17-26 17-46H33v-38h35" id="E"/><g id="c"><use transform="matrix(0.05,0,0,0.05,0,0)" xlink:href="#z"/><use transform="matrix(0.05,0,0,0.05,5.95,0)" xlink:href="#A"/><use transform="matrix(0.05,0,0,0.05,15.949999999999998,0)" xlink:href="#B"/><use transform="matrix(0.05,0,0,0.05,21.9,0)" xlink:href="#v"/><use transform="matrix(0.05,0,0,0.05,31.899999999999995,0)" xlink:href="#C"/><use transform="matrix(0.05,0,0,0.05,41.9,0)" xlink:href="#D"/><use transform="matrix(0.05,0,0,0.05,51.900000000000006,0)" xlink:href="#E"/></g><g id="d"><use transform="matrix(0.05,0,0,0.05,0,0)" xlink:href="#v"/><use transform="matrix(0.05,0,0,0.05,10,0)" xlink:href="#A"/><use transform="matrix(0.05,0,0,0.05,20,0)" xlink:href="#D"/><use transform="matrix(0.05,0,0,0.05,30,0)" xlink:href="#w"/><use transform="matrix(0.05,0,0,0.05,40,0)" xlink:href="#E"/></g><path d="M24-231v-30h32v30H24zM24 0v-190h32V0H24" id="F"/><path d="M101-234c-31-9-42 10-38 44h38v23H63V0H32v-167H5v-23h27c-7-52 17-82 69-68v24" id="G"/><g id="e"><use transform="matrix(0.05,0,0,0.05,0,0)" xlink:href="#F"/><use transform="matrix(0.05,0,0,0.05,3.95,0)" xlink:href="#w"/><use transform="matrix(0.05,0,0,0.05,13.949999999999998,0)" xlink:href="#G"/><use transform="matrix(0.05,0,0,0.05,18.95,0)" xlink:href="#v"/><use transform="matrix(0.05,0,0,0.05,28.950000000000003,0)" xlink:href="#E"/></g><path d="M96-169c-40 0-48 33-48 73s9 75 48 75c24 0 41-14 43-38l32 2c-6 37-31 61-74 61-59 0-76-41-82-99-10-93 101-131 147-64 4 7 5 14 7 22l-32 3c-4-21-16-35-41-35" id="H"/><g id="f"><use transform="matrix(0.05,0,0,0.05,0,0)" xlink:href="#D"/><use transform="matrix(0.05,0,0,0.05,10,0)" xlink:href="#t"/><use transform="matrix(0.05,0,0,0.05,15,0)" xlink:href="#H"/></g><path d="M33 0v-38h34V0H33" id="I"/><path d="M33-261c38 41 65 92 65 168S71 34 33 75H2C39 34 66-17 66-93S39-220 2-261h31" id="J"/><g id="g"><use transform="matrix(0.05,0,0,0.05,0,0)" xlink:href="#I"/><use transform="matrix(0.05,0,0,0.05,5,0)" xlink:href="#I"/><use transform="matrix(0.05,0,0,0.05,10,0)" xlink:href="#I"/><use transform="matrix(0.05,0,0,0.05,15,0)" xlink:href="#J"/></g><g id="h"><use transform="matrix(0.05,0,0,0.05,0,0)" xlink:href="#y"/><use transform="matrix(0.05,0,0,0.05,5,0)" xlink:href="#w"/><use transform="matrix(0.05,0,0,0.05,15,0)" xlink:href="#t"/><use transform="matrix(0.05,0,0,0.05,20,0)" xlink:href="#D"/><use transform="matrix(0.05,0,0,0.05,30,0)" xlink:href="#B"/><use transform="matrix(0.05,0,0,0.05,35.95,0)" xlink:href="#A"/><use transform="matrix(0.05,0,0,0.05,45.95,0)" xlink:href="#B"/><use transform="matrix(0.05,0,0,0.05,51.900000000000006,0)" xlink:href="#D"/><use transform="matrix(0.05,0,0,0.05,61.900000000000006,0)" xlink:href="#t"/><use transform="matrix(0.05,0,0,0.05,66.9,0)" xlink:href="#D"/><use transform="matrix(0.05,0,0,0.05,76.9,0)" xlink:href="#B"/></g><path d="M212-179c-10-28-35-45-73-45-59 0-87 40-87 99 0 60 29 101 89 101 43 0 62-24 78-52l27 14C228-24 195 4 139 4 59 4 22-46 18-125c-6-104 99-153 187-111 19 9 31 26 39 46" id="K"/><path d="M118-107v75H92v-75H18v-26h74v-75h26v75h74v26h-74" id="L"/><g id="i"><use transform="matrix(0.05,0,0,0.05,0,0)" xlink:href="#z"/><use transform="matrix(0.05,0,0,0.05,5.95,0)" xlink:href="#K"/><use transform="matrix(0.05,0,0,0.05,18.900000000000002,0)" xlink:href="#L"/><use transform="matrix(0.05,0,0,0.05,29.400000000000002,0)" xlink:href="#L"/><use transform="matrix(0.05,0,0,0.05,39.900000000000006,0)" xlink:href="#J"/></g><path d="M141-36C126-15 110 5 73 4 37 3 15-17 15-53c-1-64 63-63 125-63 3-35-9-54-41-54-24 1-41 7-42 31l-33-3c5-37 33-52 76-52 45 0 72 20 72 64v82c-1 20 7 32 28 27v20c-31 9-61-2-59-35zM48-53c0 20 12 33 32 33 41-3 63-29 60-74-43 2-92-5-92 41" id="M"/><path d="M24 0v-261h32V0H24" id="N"/><path d="M135-143c-3-34-86-38-87 0 15 53 115 12 119 90S17 21 10-45l28-5c4 36 97 45 98 0-10-56-113-15-118-90-4-57 82-63 122-42 12 7 21 19 24 35" id="O"/><g id="j"><use transform="matrix(0.05,0,0,0.05,0,0)" xlink:href="#u"/><use transform="matrix(0.05,0,0,0.05,10,0)" xlink:href="#M"/><use transform="matrix(0.05,0,0,0.05,20,0)" xlink:href="#N"/><use transform="matrix(0.05,0,0,0.05,23.95,0)" xlink:href="#I"/><use transform="matrix(0.05,0,0,0.05,28.950000000000003,0)" xlink:href="#O"/><use transform="matrix(0.05,0,0,0.05,37.95,0)" xlink:href="#v"/></g><path d="M206 0h-36l-40-164L89 0H53L-1-190h32L70-26l43-164h34l41 164 42-164h31" id="P"/><path d="M-5 72V49h209v23H-5" id="Q"/><path d="M210-169c-67 3-38 105-44 169h-31v-121c0-29-5-50-35-48C34-165 62-65 56 0H25l-1-190h30c1 10-1 24 2 32 10-44 99-50 107 0 11-21 27-35 58-36 85-2 47 119 55 194h-31v-121c0-29-5-49-35-48" id="R"/><path d="M84 4C-5 8 30-112 23-190h32v120c0 31 7 50 39 49 72-2 45-101 50-169h31l1 190h-30c-1-10 1-25-2-33-11 22-28 36-60 37" id="S"/><g id="k"><use transform="matrix(0.05,0,0,0.05,0,0)" xlink:href="#O"/><use transform="matrix(0.05,0,0,0.05,9,0)" xlink:href="#P"/><use transform="matrix(0.05,0,0,0.05,21.950000000000003,0)" xlink:href="#Q"/><use transform="matrix(0.05,0,0,0.05,31.950000000000003,0)" xlink:href="#D"/><use transform="matrix(0.05,0,0,0.05,41.95,0)" xlink:href="#R"/><use transform="matrix(0.05,0,0,0.05,56.900000000000006,0)" xlink:href="#S"/><use transform="matrix(0.05,0,0,0.05,66.9,0)" xlink:href="#Q"/><use transform="matrix(0.05,0,0,0.05,76.9,0)" xlink:href="#u"/><use transform="matrix(0.05,0,0,0.05,86.9,0)" xlink:href="#M"/><use transform="matrix(0.05,0,0,0.05,96.9,0)" xlink:href="#N"/><use transform="matrix(0.05,0,0,0.05,100.85000000000001,0)" xlink:href="#I"/><use transform="matrix(0.05,0,0,0.05,105.85000000000001,0)" xlink:href="#O"/><use transform="matrix(0.05,0,0,0.05,114.85000000000001,0)" xlink:href="#v"/></g><g id="l"><use transform="matrix(0.05,0,0,0.05,0,0)" xlink:href="#u"/><use transform="matrix(0.05,0,0,0.05,10,0)" xlink:href="#P"/><use transform="matrix(0.05,0,0,0.05,22.950000000000003,0)" xlink:href="#Q"/><use transform="matrix(0.05,0,0,0.05,32.95,0)" xlink:href="#D"/><use transform="matrix(0.05,0,0,0.05,42.95,0)" xlink:href="#R"/><use transform="matrix(0.05,0,0,0.05,57.900000000000006,0)" xlink:href="#S"/><use transform="matrix(0.05,0,0,0.05,67.9,0)" xlink:href="#Q"/><use transform="matrix(0.05,0,0,0.05,77.9,0)" xlink:href="#u"/><use transform="matrix(0.05,0,0,0.05,87.9,0)" xlink:href="#M"/><use transform="matrix(0.05,0,0,0.05,97.9,0)" xlink:href="#N"/><use transform="matrix(0.05,0,0,0.05,101.85000000000001,0)" xlink:href="#I"/><use transform="matrix(0.05,0,0,0.05,106.85000000000001,0)" xlink:href="#O"/><use transform="matrix(0.05,0,0,0.05,115.85000000000001,0)" xlink:href="#v"/></g><path d="M141 0L90-78 38 0H4l68-98-65-92h35l48 74 47-74h35l-64 92 68 98h-35" id="T"/><g id="m"><use transform="matrix(0.05,0,0,0.05,0,0)" xlink:href="#N"/><use transform="matrix(0.05,0,0,0.05,3.95,0)" xlink:href="#F"/><use transform="matrix(0.05,0,0,0.05,7.9,0)" xlink:href="#C"/><use transform="matrix(0.05,0,0,0.05,17.9,0)" xlink:href="#T"/><use transform="matrix(0.05,0,0,0.05,26.899999999999995,0)" xlink:href="#B"/><use transform="matrix(0.05,0,0,0.05,32.85,0)" xlink:href="#t"/><use transform="matrix(0.05,0,0,0.05,37.85,0)" xlink:href="#Q"/><use transform="matrix(0.05,0,0,0.05,47.85,0)" xlink:href="#H"/><use transform="matrix(0.05,0,0,0.05,56.85,0)" xlink:href="#v"/><use transform="matrix(0.05,0,0,0.05,66.85,0)" xlink:href="#B"/><use transform="matrix(0.05,0,0,0.05,72.8,0)" xlink:href="#D"/><use transform="matrix(0.05,0,0,0.05,82.8,0)" xlink:href="#I"/><use transform="matrix(0.05,0,0,0.05,87.8,0)" xlink:href="#O"/><use transform="matrix(0.05,0,0,0.05,96.8,0)" xlink:href="#v"/></g><path d="M85-194c31 0 48 13 60 33l-1-100h32l1 261h-30c-2-10 0-23-3-31C134-8 116 4 85 4 32 4 16-35 15-94c0-66 23-100 70-100zm9 24c-40 0-46 34-46 75 0 40 6 74 45 74 42 0 51-32 51-76 0-42-9-74-50-73" id="U"/><g id="n"><use transform="matrix(0.05,0,0,0.05,0,0)" xlink:href="#N"/><use transform="matrix(0.05,0,0,0.05,3.95,0)" xlink:href="#F"/><use transform="matrix(0.05,0,0,0.05,7.9,0)" xlink:href="#C"/><use transform="matrix(0.05,0,0,0.05,17.9,0)" xlink:href="#T"/><use transform="matrix(0.05,0,0,0.05,26.899999999999995,0)" xlink:href="#U"/><use transform="matrix(0.05,0,0,0.05,36.9,0)" xlink:href="#A"/><use transform="matrix(0.05,0,0,0.05,46.9,0)" xlink:href="#I"/><use transform="matrix(0.05,0,0,0.05,51.900000000000006,0)" xlink:href="#O"/><use transform="matrix(0.05,0,0,0.05,60.900000000000006,0)" xlink:href="#v"/></g><g id="o"><use transform="matrix(0.05,0,0,0.05,0,0)" xlink:href="#N"/><use transform="matrix(0.05,0,0,0.05,3.95,0)" xlink:href="#F"/><use transform="matrix(0.05,0,0,0.05,7.9,0)" xlink:href="#C"/><use transform="matrix(0.05,0,0,0.05,17.9,0)" xlink:href="#C"/><use transform="matrix(0.05,0,0,0.05,27.899999999999995,0)" xlink:href="#v"/><use transform="matrix(0.05,0,0,0.05,37.9,0)" xlink:href="#v"/><use transform="matrix(0.05,0,0,0.05,47.9,0)" xlink:href="#O"/><use transform="matrix(0.05,0,0,0.05,56.900000000000006,0)" xlink:href="#t"/><use transform="matrix(0.05,0,0,0.05,61.900000000000006,0)" xlink:href="#Q"/><use transform="matrix(0.05,0,0,0.05,71.9,0)" xlink:href="#w"/><use transform="matrix(0.05,0,0,0.05,81.9,0)" xlink:href="#S"/><use transform="matrix(0.05,0,0,0.05,91.9,0)" xlink:href="#R"/><use transform="matrix(0.05,0,0,0.05,106.85000000000001,0)" xlink:href="#A"/><use transform="matrix(0.05,0,0,0.05,116.85000000000001,0)" xlink:href="#s"/><use transform="matrix(0.05,0,0,0.05,124.5,0)" xlink:href="#I"/><use transform="matrix(0.05,0,0,0.05,129.5,0)" xlink:href="#O"/><use transform="matrix(0.05,0,0,0.05,138.5,0)" xlink:href="#v"/></g><g id="p"><use transform="matrix(0.05,0,0,0.05,0,0)" xlink:href="#D"/><use transform="matrix(0.05,0,0,0.05,10,0)" xlink:href="#t"/><use transform="matrix(0.05,0,0,0.05,15,0)" xlink:href="#H"/></g><g id="q"><use transform="matrix(0.05,0,0,0.05,0,0)" xlink:href="#I"/><use transform="matrix(0.05,0,0,0.05,5,0)" xlink:href="#I"/><use transform="matrix(0.05,0,0,0.05,10,0)" xlink:href="#I"/></g></defs></g></svg>