<svg xmlns="http://www.w3.org/2000/svg" xmlns:xlink="http://www.w3.org/1999/xlink" xmlns:lucid="lucid" width="1080" height="320"><g transform="translate(-120 -60)" lucid:page-tab-id="0_0"><path d="M140 80h520v80H140z" stroke="#a3d977" stroke-width="2" fill="#a3d977"/><use xlink:href="#a" transform="matrix(1,0,0,1,145,85) translate(62.02499999999998 38.6)"/><use xlink:href="#b" transform="matrix(1,0,0,1,145,85) translate(123.02499999999998 38.6)"/><use xlink:href="#c" transform="matrix(1,0,0,1,145,85) translate(163.22499999999997 38.6)"/><use xlink:href="#d" transform="matrix(1,0,0,1,145,85) translate(181.17499999999998 38.6)"/><use xlink:href="#e" transform="matrix(1,0,0,1,145,85) translate(231.125 38.6)"/><use xlink:href="#f" transform="matrix(1,0,0,1,145,85) translate(257.075 38.6)"/><use xlink:href="#g" transform="matrix(1,0,0,1,145,85) translate(300.075 38.6)"/><path d="M660 80h520v80H660z" stroke="#f9d2de" stroke-width="2" fill="#f9d2de"/><use xlink:href="#h" transform="matrix(1,0,0,1,665,85) translate(1.5509259259259238 40.333333333333336)"/><use xlink:href="#i" transform="matrix(1,0,0,1,665,85) translate(62.550925925925924 40.333333333333336)"/><use xlink:href="#j" transform="matrix(1,0,0,1,665,85) translate(102.75092592592593 40.333333333333336)"/><use xlink:href="#k" transform="matrix(1,0,0,1,665,85) translate(120.70092592592593 40.333333333333336)"/><use xlink:href="#l" transform="matrix(1,0,0,1,665,85) translate(181.84907407407408 40.333333333333336)"/><use xlink:href="#m" transform="matrix(1,0,0,1,665,85) translate(301.6990740740741 40.333333333333336)"/><use xlink:href="#n" transform="matrix(1,0,0,1,665,85) translate(327.64907407407406 40.333333333333336)"/><use xlink:href="#o" transform="matrix(1,0,0,1,665,85) translate(357.64907407407406 40.333333333333336)"/><use xlink:href="#p" transform="matrix(1,0,0,1,665,85) translate(432.4490740740741 40.333333333333336)"/><path d="M140 160h520v40H140z" stroke="#99d5ca" stroke-width="2" fill="#99d5ca"/><use xlink:href="#q" transform="matrix(1,0,0,1,145,165) translate(1.0774691358024882 19.444444444444443)"/><use xlink:href="#r" transform="matrix(1,0,0,1,145,165) translate(45.97746913580249 19.444444444444443)"/><use xlink:href="#s" transform="matrix(1,0,0,1,145,165) translate(141.8774691358025 19.444444444444443)"/><use xlink:href="#t" transform="matrix(1,0,0,1,145,165) translate(206.7274691358025 19.444444444444443)"/><use xlink:href="#e" transform="matrix(1,0,0,1,145,165) translate(319.5774691358025 19.444444444444443)"/><use xlink:href="#u" transform="matrix(1,0,0,1,145,165) translate(345.52746913580245 19.444444444444443)"/><path d="M360 200h160v160H360z" stroke="#ffeca9" stroke-width="2" fill="#ffeca9"/><use xlink:href="#v" transform="matrix(1,0,0,1,365,205) translate(2.6234567901234556 81.22222222222223)"/><path d="M520 200h140v40H520z" stroke="#ffeca9" stroke-width="2" fill="#ffeca9"/><use xlink:href="#w" transform="matrix(1,0,0,1,525,205) translate(0 18.6)"/><path d="M520 240h140v40H520z" stroke="#ffeca9" stroke-width="2" fill="#ffeca9"/><use xlink:href="#x" transform="matrix(1,0,0,1,525,245) translate(0 18.6)"/><path d="M520 280h140v40H520z" stroke="#ffeca9" stroke-width="2" fill="#ffeca9"/><use xlink:href="#y" transform="matrix(1,0,0,1,525,285) translate(0 18.6)"/><path d="M520 320h140v40H520z" stroke="#ffeca9" stroke-width="2" fill="#ffeca9"/><use xlink:href="#z" transform="matrix(1,0,0,1,525,325) translate(0 18.6)"/><path d="M140 280h220v40H140z" stroke="#99d2f2" stroke-width="2" fill="#99d2f2"/><g><use xlink:href="#A" transform="matrix(1,0,0,1,145,285) translate(61.55 22.799999999999997)"/></g><path d="M140 320h220v40H140z" stroke="#99d2f2" stroke-width="2" fill="#99d2f2"/><g><use xlink:href="#B" transform="matrix(1,0,0,1,145,325) translate(72.6 22.799999999999997)"/></g><path d="M140 240h220v40H140z" stroke="#99d2f2" stroke-width="2" fill="#99d2f2"/><g><use xlink:href="#C" transform="matrix(1,0,0,1,145,245) translate(63.099999999999994 22.799999999999997)"/></g><path d="M140 200h220v40H140z" stroke="#99d2f2" stroke-width="2" fill="#99d2f2"/><g><use xlink:href="#D" transform="matrix(1,0,0,1,145,205) translate(65.05555555555556 32)"/></g><path d="M660 160h520v40H660z" stroke="#f5b5c8" stroke-width="2" fill="#f5b5c8"/><g><use xlink:href="#E" transform="matrix(1,0,0,1,665,165) translate(68.80000000000001 18.6)"/><use xlink:href="#F" transform="matrix(1,0,0,1,665,165) translate(158.70000000000002 18.6)"/><use xlink:href="#G" transform="matrix(1,0,0,1,665,165) translate(247.65000000000003 18.6)"/><use xlink:href="#H" transform="matrix(1,0,0,1,665,165) translate(315.45000000000005 18.6)"/><use xlink:href="#I" transform="matrix(1,0,0,1,665,165) translate(358.40000000000003 18.6)"/><use xlink:href="#J" transform="matrix(1,0,0,1,665,165) translate(401.3 18.6)"/></g><path d="M660 200h520v40H660z" stroke="#f9d2de" stroke-width="2" fill="#f9d2de"/><g><use xlink:href="#K" transform="matrix(1,0,0,1,665,205) translate(24.375 18.6)"/><use xlink:href="#L" transform="matrix(1,0,0,1,665,205) translate(92.22500000000001 18.6)"/><use xlink:href="#M" transform="matrix(1,0,0,1,665,205) translate(186.07500000000002 18.6)"/><use xlink:href="#N" transform="matrix(1,0,0,1,665,205) translate(250.925 18.6)"/><use xlink:href="#O" transform="matrix(1,0,0,1,665,205) translate(293.82500000000005 18.6)"/><use xlink:href="#P" transform="matrix(1,0,0,1,665,205) translate(370.77500000000003 18.6)"/><use xlink:href="#Q" transform="matrix(1,0,0,1,665,205) translate(391.725 18.6)"/></g><path d="M660 280h520v40H660z" stroke="#f9d2de" stroke-width="2" fill="#f9d2de"/><g><use xlink:href="#R" transform="matrix(1,0,0,1,665,285) translate(12.074999999999989 18.6)"/><use xlink:href="#S" transform="matrix(1,0,0,1,665,285) translate(88.925 18.6)"/><use xlink:href="#T" transform="matrix(1,0,0,1,665,285) translate(129.875 18.6)"/><use xlink:href="#U" transform="matrix(1,0,0,1,665,285) translate(168.825 18.6)"/><use xlink:href="#V" transform="matrix(1,0,0,1,665,285) translate(207.825 18.6)"/><use xlink:href="#W" transform="matrix(1,0,0,1,665,285) translate(251.825 18.6)"/><use xlink:href="#I" transform="matrix(1,0,0,1,665,285) translate(357.675 18.6)"/><use xlink:href="#X" transform="matrix(1,0,0,1,665,285) translate(400.575 18.6)"/><use xlink:href="#Y" transform="matrix(1,0,0,1,665,285) translate(456.425 18.6)"/></g><path d="M660 320h520v40H660z" stroke="#f5b5c8" stroke-width="2" fill="#f5b5c8"/><g><use xlink:href="#Z" transform="matrix(1,0,0,1,665,325) translate(32.375 18.6)"/><use xlink:href="#aa" transform="matrix(1,0,0,1,665,325) translate(89.275 18.6)"/><use xlink:href="#ab" transform="matrix(1,0,0,1,665,325) translate(182.175 18.6)"/><use xlink:href="#ac" transform="matrix(1,0,0,1,665,325) translate(227.025 18.6)"/><use xlink:href="#ad" transform="matrix(1,0,0,1,665,325) translate(285.925 18.6)"/><use xlink:href="#ae" transform="matrix(1,0,0,1,665,325) translate(323.875 18.6)"/><use xlink:href="#af" transform="matrix(1,0,0,1,665,325) translate(362.825 18.6)"/><use xlink:href="#U" transform="matrix(1,0,0,1,665,325) translate(399.725 18.6)"/><use xlink:href="#ag" transform="matrix(1,0,0,1,665,325) translate(438.725 18.6)"/></g><path d="M660 240h520v40H660z" stroke="#f5b5c8" stroke-width="2" fill="#f5b5c8"/><g><use xlink:href="#ah" transform="matrix(1,0,0,1,665,245) translate(123.14999999999998 18.6)"/><use xlink:href="#ai" transform="matrix(1,0,0,1,665,245) translate(168.14999999999998 18.6)"/><use xlink:href="#I" transform="matrix(1,0,0,1,665,245) translate(271.04999999999995 18.6)"/><use xlink:href="#aj" transform="matrix(1,0,0,1,665,245) translate(313.95 18.6)"/></g><defs><path d="M30-248c87 1 191-15 191 75 0 78-77 80-158 76V0H30v-248zm33 125c57 0 124 11 124-50 0-59-68-47-124-48v98" id="ak"/><path d="M179-190L93 31C79 59 56 82 12 73V49c39 6 53-20 64-50L1-190h34L92-34l54-156h33" id="al"/><path d="M59-47c-2 24 18 29 38 22v24C64 9 27 4 27-40v-127H5v-23h24l9-43h21v43h35v23H59v120" id="am"/><path d="M106-169C34-169 62-67 57 0H25v-261h32l-1 103c12-21 28-36 61-36 89 0 53 116 60 194h-32v-121c2-32-8-49-39-48" id="an"/><path d="M100-194c62-1 85 37 85 99 1 63-27 99-86 99S16-35 15-95c0-66 28-99 85-99zM99-20c44 1 53-31 53-75 0-43-8-75-51-75s-53 32-53 75 10 74 51 75" id="ao"/><path d="M117-194c89-4 53 116 60 194h-32v-121c0-31-8-49-39-48C34-167 62-67 57 0H25l-1-190h30c1 10-1 24 2 32 11-22 29-35 61-36" id="ap"/><g id="a"><use transform="matrix(0.05,0,0,0.05,0,0)" xlink:href="#ak"/><use transform="matrix(0.05,0,0,0.05,12,0)" xlink:href="#al"/><use transform="matrix(0.05,0,0,0.05,21,0)" xlink:href="#am"/><use transform="matrix(0.05,0,0,0.05,26,0)" xlink:href="#an"/><use transform="matrix(0.05,0,0,0.05,36,0)" xlink:href="#ao"/><use transform="matrix(0.05,0,0,0.05,46,0)" xlink:href="#ap"/></g><path d="M195 0l-74-108L45 0H8l94-129-87-119h37l69 98 67-98h37l-84 118L233 0h-38" id="aq"/><path d="M233-177c-1 41-23 64-60 70L243 0h-38l-65-103H63V0H30v-248c88 3 205-21 203 71zM63-129c60-2 137 13 137-47 0-61-80-42-137-45v92" id="ar"/><path d="M127-220V0H93v-220H8v-28h204v28h-85" id="as"/><g id="b"><use transform="matrix(0.05,0,0,0.05,0,0)" xlink:href="#aq"/><use transform="matrix(0.05,0,0,0.05,12,0)" xlink:href="#ar"/><use transform="matrix(0.05,0,0,0.05,24.6,0)" xlink:href="#as"/></g><path d="M24-231v-30h32v30H24zM24 0v-190h32V0H24" id="at"/><path d="M135-143c-3-34-86-38-87 0 15 53 115 12 119 90S17 21 10-45l28-5c4 36 97 45 98 0-10-56-113-15-118-90-4-57 82-63 122-42 12 7 21 19 24 35" id="au"/><g id="c"><use transform="matrix(0.05,0,0,0.05,0,0)" xlink:href="#at"/><use transform="matrix(0.05,0,0,0.05,3.95,0)" xlink:href="#au"/></g><path d="M210-169c-67 3-38 105-44 169h-31v-121c0-29-5-50-35-48C34-165 62-65 56 0H25l-1-190h30c1 10-1 24 2 32 10-44 99-50 107 0 11-21 27-35 58-36 85-2 47 119 55 194h-31v-121c0-29-5-49-35-48" id="av"/><path d="M141-36C126-15 110 5 73 4 37 3 15-17 15-53c-1-64 63-63 125-63 3-35-9-54-41-54-24 1-41 7-42 31l-33-3c5-37 33-52 76-52 45 0 72 20 72 64v82c-1 20 7 32 28 27v20c-31 9-61-2-59-35zM48-53c0 20 12 33 32 33 41-3 63-29 60-74-43 2-92-5-92 41" id="aw"/><path d="M85-194c31 0 48 13 60 33l-1-100h32l1 261h-30c-2-10 0-23-3-31C134-8 116 4 85 4 32 4 16-35 15-94c0-66 23-100 70-100zm9 24c-40 0-46 34-46 75 0 40 6 74 45 74 42 0 51-32 51-76 0-42-9-74-50-73" id="ax"/><path d="M100-194c63 0 86 42 84 106H49c0 40 14 67 53 68 26 1 43-12 49-29l28 8c-11 28-37 45-77 45C44 4 14-33 15-96c1-61 26-98 85-98zm52 81c6-60-76-77-97-28-3 7-6 17-6 28h103" id="ay"/><g id="d"><use transform="matrix(0.05,0,0,0.05,0,0)" xlink:href="#av"/><use transform="matrix(0.05,0,0,0.05,14.950000000000001,0)" xlink:href="#aw"/><use transform="matrix(0.05,0,0,0.05,24.950000000000003,0)" xlink:href="#ax"/><use transform="matrix(0.05,0,0,0.05,34.95,0)" xlink:href="#ay"/></g><path d="M101-234c-31-9-42 10-38 44h38v23H63V0H32v-167H5v-23h27c-7-52 17-82 69-68v24" id="az"/><path d="M114-163C36-179 61-72 57 0H25l-1-190h30c1 12-1 29 2 39 6-27 23-49 58-41v29" id="aA"/><g id="e"><use transform="matrix(0.05,0,0,0.05,0,0)" xlink:href="#az"/><use transform="matrix(0.05,0,0,0.05,5,0)" xlink:href="#ao"/><use transform="matrix(0.05,0,0,0.05,15,0)" xlink:href="#aA"/></g><g id="f"><use transform="matrix(0.05,0,0,0.05,0,0)" xlink:href="#ay"/><use transform="matrix(0.05,0,0,0.05,10,0)" xlink:href="#aw"/><use transform="matrix(0.05,0,0,0.05,20,0)" xlink:href="#au"/><use transform="matrix(0.05,0,0,0.05,29,0)" xlink:href="#al"/></g><path d="M67-125c0 53 21 87 73 88 37 1 54-22 65-47l45 17C233-25 199 4 140 4 58 4 20-42 15-125 8-235 124-281 211-232c18 10 29 29 36 50l-46 12c-8-25-30-41-62-41-52 0-71 34-72 86" id="aB"/><path d="M238-95c0 69-44 99-111 99C63 4 22-25 22-93v-155h51v151c-1 38 19 59 55 60 90 1 49-130 58-211h52v153" id="aC"/><path d="M169-182c-1-43-94-46-97-3 18 66 151 10 154 114 3 95-165 93-204 36-6-8-10-19-12-30l50-8c3 46 112 56 116 5-17-69-150-10-154-114-4-87 153-88 188-35 5 8 8 18 10 28" id="aD"/><path d="M136-208V0H84v-208H4v-40h212v40h-80" id="aE"/><path d="M140-251c80 0 125 45 125 126S219 4 139 4C58 4 15-44 15-125s44-126 125-126zm-1 214c52 0 73-35 73-88 0-50-21-86-72-86-52 0-73 35-73 86s22 88 72 88" id="aF"/><path d="M230 0l2-204L168 0h-37L68-204 70 0H24v-248h70l56 185 57-185h69V0h-46" id="aG"/><path d="M24 0v-248h52V0H24" id="aH"/><path d="M210 0H11v-37l134-170H24v-41h178v36L68-41h142V0" id="aI"/><path d="M199 0l-22-63H83L61 0H9l90-248h61L250 0h-51zm-33-102l-36-108c-10 38-24 72-36 108h72" id="aJ"/><path d="M175 0L67-191c6 58 2 128 3 191H24v-248h59L193-55c-6-58-2-129-3-193h46V0h-61" id="aK"/><g id="g"><use transform="matrix(0.05,0,0,0.05,0,0)" xlink:href="#aB"/><use transform="matrix(0.05,0,0,0.05,12.950000000000001,0)" xlink:href="#aC"/><use transform="matrix(0.05,0,0,0.05,25.900000000000002,0)" xlink:href="#aD"/><use transform="matrix(0.05,0,0,0.05,37.900000000000006,0)" xlink:href="#aE"/><use transform="matrix(0.05,0,0,0.05,48.50000000000001,0)" xlink:href="#aF"/><use transform="matrix(0.05,0,0,0.05,62.5,0)" xlink:href="#aG"/><use transform="matrix(0.05,0,0,0.05,77.45,0)" xlink:href="#aH"/><use transform="matrix(0.05,0,0,0.05,82.45,0)" xlink:href="#aI"/><use transform="matrix(0.05,0,0,0.05,93.4,0)" xlink:href="#aJ"/><use transform="matrix(0.05,0,0,0.05,105,0)" xlink:href="#aE"/><use transform="matrix(0.05,0,0,0.05,115.95,0)" xlink:href="#aH"/><use transform="matrix(0.05,0,0,0.05,120.95,0)" xlink:href="#aF"/><use transform="matrix(0.05,0,0,0.05,134.95000000000002,0)" xlink:href="#aK"/></g><g id="h"><use transform="matrix(0.05,0,0,0.05,0,0)" xlink:href="#ak"/><use transform="matrix(0.05,0,0,0.05,12,0)" xlink:href="#al"/><use transform="matrix(0.05,0,0,0.05,21,0)" xlink:href="#am"/><use transform="matrix(0.05,0,0,0.05,26,0)" xlink:href="#an"/><use transform="matrix(0.05,0,0,0.05,36,0)" xlink:href="#ao"/><use transform="matrix(0.05,0,0,0.05,46,0)" xlink:href="#ap"/></g><g id="i"><use transform="matrix(0.05,0,0,0.05,0,0)" xlink:href="#aq"/><use transform="matrix(0.05,0,0,0.05,12,0)" xlink:href="#ar"/><use transform="matrix(0.05,0,0,0.05,24.6,0)" xlink:href="#as"/></g><g id="j"><use transform="matrix(0.05,0,0,0.05,0,0)" xlink:href="#at"/><use transform="matrix(0.05,0,0,0.05,3.95,0)" xlink:href="#au"/></g><g id="k"><use transform="matrix(0.07407407407407408,0,0,0.07407407407407408,0,0)" xlink:href="#aK"/><use transform="matrix(0.07407407407407408,0,0,0.07407407407407408,19.185185185185187,0)" xlink:href="#aF"/><use transform="matrix(0.07407407407407408,0,0,0.07407407407407408,39.92592592592593,0)" xlink:href="#aE"/><path d="M-1.33 1.43h58.8v2.8h-58.8z"/></g><path d="M96-169c-40 0-48 33-48 73s9 75 48 75c24 0 41-14 43-38l32 2c-6 37-31 61-74 61-59 0-76-41-82-99-10-93 101-131 147-64 4 7 5 14 7 22l-32 3c-4-21-16-35-41-35" id="aL"/><g id="l"><use transform="matrix(0.05,0,0,0.05,0,0)" xlink:href="#aA"/><use transform="matrix(0.05,0,0,0.05,5.95,0)" xlink:href="#ay"/><use transform="matrix(0.05,0,0,0.05,15.949999999999998,0)" xlink:href="#aL"/><use transform="matrix(0.05,0,0,0.05,24.95,0)" xlink:href="#ao"/><use transform="matrix(0.05,0,0,0.05,34.95,0)" xlink:href="#av"/><use transform="matrix(0.05,0,0,0.05,49.900000000000006,0)" xlink:href="#av"/><use transform="matrix(0.05,0,0,0.05,64.85000000000001,0)" xlink:href="#ay"/><use transform="matrix(0.05,0,0,0.05,74.85000000000001,0)" xlink:href="#ap"/><use transform="matrix(0.05,0,0,0.05,84.85000000000001,0)" xlink:href="#ax"/><use transform="matrix(0.05,0,0,0.05,94.85000000000001,0)" xlink:href="#ay"/><use transform="matrix(0.05,0,0,0.05,104.85000000000001,0)" xlink:href="#ax"/></g><g id="m"><use transform="matrix(0.05,0,0,0.05,0,0)" xlink:href="#az"/><use transform="matrix(0.05,0,0,0.05,5,0)" xlink:href="#ao"/><use transform="matrix(0.05,0,0,0.05,15,0)" xlink:href="#aA"/></g><g id="n"><use transform="matrix(0.05,0,0,0.05,0,0)" xlink:href="#am"/><use transform="matrix(0.05,0,0,0.05,5,0)" xlink:href="#an"/><use transform="matrix(0.05,0,0,0.05,15,0)" xlink:href="#ay"/></g><path d="M24 0v-261h32V0H24" id="aM"/><path d="M206 0h-36l-40-164L89 0H53L-1-190h32L70-26l43-164h34l41 164 42-164h31" id="aN"/><path d="M177-190C167-65 218 103 67 71c-23-6-38-20-44-43l32-5c15 47 100 32 89-28v-30C133-14 115 1 83 1 29 1 15-40 15-95c0-56 16-97 71-98 29-1 48 16 59 35 1-10 0-23 2-32h30zM94-22c36 0 50-32 50-73 0-42-14-75-50-75-39 0-46 34-46 75s6 73 46 73" id="aO"/><g id="o"><use transform="matrix(0.05,0,0,0.05,0,0)" xlink:href="#az"/><use transform="matrix(0.05,0,0,0.05,5,0)" xlink:href="#ao"/><use transform="matrix(0.05,0,0,0.05,15,0)" xlink:href="#aM"/><use transform="matrix(0.05,0,0,0.05,18.95,0)" xlink:href="#aM"/><use transform="matrix(0.05,0,0,0.05,22.9,0)" xlink:href="#ao"/><use transform="matrix(0.05,0,0,0.05,32.9,0)" xlink:href="#aN"/><use transform="matrix(0.05,0,0,0.05,45.85,0)" xlink:href="#at"/><use transform="matrix(0.05,0,0,0.05,49.800000000000004,0)" xlink:href="#ap"/><use transform="matrix(0.05,0,0,0.05,59.800000000000004,0)" xlink:href="#aO"/></g><path d="M84 4C-5 8 30-112 23-190h32v120c0 31 7 50 39 49 72-2 45-101 50-169h31l1 190h-30c-1-10 1-25-2-33-11 22-28 36-60 37" id="aP"/><g id="p"><use transform="matrix(0.05,0,0,0.05,0,0)" xlink:href="#aP"/><use transform="matrix(0.05,0,0,0.05,10,0)" xlink:href="#au"/><use transform="matrix(0.05,0,0,0.05,19,0)" xlink:href="#ay"/><use transform="matrix(0.05,0,0,0.05,29,0)" xlink:href="#aL"/><use transform="matrix(0.05,0,0,0.05,38,0)" xlink:href="#aw"/><use transform="matrix(0.05,0,0,0.05,48,0)" xlink:href="#au"/><use transform="matrix(0.05,0,0,0.05,57,0)" xlink:href="#ay"/><use transform="matrix(0.05,0,0,0.05,67,0)" xlink:href="#au"/></g><path d="M160-131c35 5 61 23 61 61C221 17 115-2 30 0v-248c76 3 177-17 177 60 0 33-19 50-47 57zm-97-11c50-1 110 9 110-42 0-47-63-36-110-37v79zm0 115c55-2 124 14 124-45 0-56-70-42-124-44v89" id="aQ"/><g id="q"><use transform="matrix(0.05,0,0,0.05,0,0)" xlink:href="#aQ"/><use transform="matrix(0.05,0,0,0.05,12,0)" xlink:href="#aP"/><use transform="matrix(0.05,0,0,0.05,22,0)" xlink:href="#at"/><use transform="matrix(0.05,0,0,0.05,25.950000000000003,0)" xlink:href="#aM"/><use transform="matrix(0.05,0,0,0.05,29.899999999999995,0)" xlink:href="#ax"/></g><path d="M9 0v-24l116-142H16v-24h144v24L44-24h123V0H9" id="aR"/><g id="r"><use transform="matrix(0.05,0,0,0.05,0,0)" xlink:href="#aL"/><use transform="matrix(0.05,0,0,0.05,9,0)" xlink:href="#aP"/><use transform="matrix(0.05,0,0,0.05,19,0)" xlink:href="#au"/><use transform="matrix(0.05,0,0,0.05,28,0)" xlink:href="#am"/><use transform="matrix(0.05,0,0,0.05,33,0)" xlink:href="#ao"/><use transform="matrix(0.05,0,0,0.05,43,0)" xlink:href="#av"/><use transform="matrix(0.05,0,0,0.05,57.95,0)" xlink:href="#at"/><use transform="matrix(0.05,0,0,0.05,61.900000000000006,0)" xlink:href="#aR"/><use transform="matrix(0.05,0,0,0.05,70.9,0)" xlink:href="#ay"/><use transform="matrix(0.05,0,0,0.05,80.9,0)" xlink:href="#ax"/></g><g id="s"><use transform="matrix(0.05,0,0,0.05,0,0)" xlink:href="#aA"/><use transform="matrix(0.05,0,0,0.05,5.95,0)" xlink:href="#aP"/><use transform="matrix(0.05,0,0,0.05,15.949999999999998,0)" xlink:href="#ap"/><use transform="matrix(0.05,0,0,0.05,25.950000000000003,0)" xlink:href="#am"/><use transform="matrix(0.05,0,0,0.05,30.950000000000003,0)" xlink:href="#at"/><use transform="matrix(0.05,0,0,0.05,34.9,0)" xlink:href="#av"/><use transform="matrix(0.05,0,0,0.05,49.85,0)" xlink:href="#ay"/></g><path d="M108 0H70L1-190h34L89-25l56-165h34" id="aS"/><g id="t"><use transform="matrix(0.05,0,0,0.05,0,0)" xlink:href="#ay"/><use transform="matrix(0.05,0,0,0.05,10,0)" xlink:href="#ap"/><use transform="matrix(0.05,0,0,0.05,20,0)" xlink:href="#aS"/><use transform="matrix(0.05,0,0,0.05,29,0)" xlink:href="#at"/><use transform="matrix(0.05,0,0,0.05,32.95,0)" xlink:href="#aA"/><use transform="matrix(0.05,0,0,0.05,38.900000000000006,0)" xlink:href="#ao"/><use transform="matrix(0.05,0,0,0.05,48.900000000000006,0)" xlink:href="#ap"/><use transform="matrix(0.05,0,0,0.05,58.900000000000006,0)" xlink:href="#av"/><use transform="matrix(0.05,0,0,0.05,73.85000000000001,0)" xlink:href="#ay"/><use transform="matrix(0.05,0,0,0.05,83.85000000000001,0)" xlink:href="#ap"/><use transform="matrix(0.05,0,0,0.05,93.85000000000001,0)" xlink:href="#am"/><use transform="matrix(0.05,0,0,0.05,98.85000000000001,0)" xlink:href="#au"/></g><path d="M24-248c93 1 206-16 204 79-1 75-69 88-152 82V0H24v-248zm52 121c47 0 100 7 100-41 0-47-54-39-100-39v80" id="aT"/><path d="M24 0v-248h52v208h133V0H24" id="aU"/><g id="u"><use transform="matrix(0.06172839506172839,0,0,0.06172839506172839,0,0)" xlink:href="#aJ"/><use transform="matrix(0.06172839506172839,0,0,0.06172839506172839,15.987654320987653,0)" xlink:href="#aT"/><use transform="matrix(0.06172839506172839,0,0,0.06172839506172839,30.80246913580247,0)" xlink:href="#aT"/><use transform="matrix(0.06172839506172839,0,0,0.06172839506172839,45.61728395061728,0)" xlink:href="#aU"/><use transform="matrix(0.06172839506172839,0,0,0.06172839506172839,59.1358024691358,0)" xlink:href="#aH"/><use transform="matrix(0.06172839506172839,0,0,0.06172839506172839,65.30864197530863,0)" xlink:href="#aB"/><use transform="matrix(0.06172839506172839,0,0,0.06172839506172839,81.29629629629629,0)" xlink:href="#aJ"/><use transform="matrix(0.06172839506172839,0,0,0.06172839506172839,95.61728395061728,0)" xlink:href="#aE"/><use transform="matrix(0.06172839506172839,0,0,0.06172839506172839,109.1358024691358,0)" xlink:href="#aH"/><use transform="matrix(0.06172839506172839,0,0,0.06172839506172839,115.30864197530863,0)" xlink:href="#aF"/><use transform="matrix(0.06172839506172839,0,0,0.06172839506172839,132.59259259259258,0)" xlink:href="#aK"/><use transform="matrix(0.06172839506172839,0,0,0.06172839506172839,148.58024691358023,0)" xlink:href="#aD"/></g><path d="M135-150c-39-12-60 13-60 57V0H25l-1-190h47c2 13-1 29 3 40 6-28 27-53 61-41v41" id="aV"/><path d="M110-194c64 0 96 36 96 99 0 64-35 99-97 99-61 0-95-36-95-99 0-62 34-99 96-99zm-1 164c35 0 45-28 45-65 0-40-10-65-43-65-34 0-45 26-45 65 0 36 10 65 43 65" id="aW"/><path d="M115-3C79 11 28 4 28-45v-112H4v-33h27l15-45h31v45h36v33H77v99c-1 23 16 31 38 25v30" id="aX"/><path d="M123 10C108 53 80 86 19 72V37c35 8 53-11 59-39L3-190h52l48 148c12-52 28-100 44-148h51" id="aY"/><path d="M135-194c53 0 70 44 70 98 0 56-19 98-73 100-31 1-45-17-59-34 3 33 2 69 2 105H25l-1-265h48c2 10 0 23 3 31 11-24 29-35 60-35zM114-30c33 0 39-31 40-66 0-38-9-64-40-64-56 0-55 130 0 130" id="aZ"/><path d="M185-48c-13 30-37 53-82 52C43 2 14-33 14-96s30-98 90-98c62 0 83 45 84 108H66c0 31 8 55 39 56 18 0 30-7 34-22zm-45-69c5-46-57-63-70-21-2 6-4 13-4 21h74" id="ba"/><g id="v"><use transform="matrix(0.08641975308641976,0,0,0.08641975308641976,0,0)" xlink:href="#aT"/><use transform="matrix(0.08641975308641976,0,0,0.08641975308641976,20.740740740740744,0)" xlink:href="#aV"/><use transform="matrix(0.08641975308641976,0,0,0.08641975308641976,32.839506172839506,0)" xlink:href="#aW"/><use transform="matrix(0.08641975308641976,0,0,0.08641975308641976,51.76543209876543,0)" xlink:href="#aX"/><use transform="matrix(0.08641975308641976,0,0,0.08641975308641976,62.04938271604938,0)" xlink:href="#aW"/><use transform="matrix(0.08641975308641976,0,0,0.08641975308641976,80.9753086419753,0)" xlink:href="#aX"/><use transform="matrix(0.08641975308641976,0,0,0.08641975308641976,91.25925925925925,0)" xlink:href="#aY"/><use transform="matrix(0.08641975308641976,0,0,0.08641975308641976,108.5432098765432,0)" xlink:href="#aZ"/><use transform="matrix(0.08641975308641976,0,0,0.08641975308641976,127.46913580246913,0)" xlink:href="#ba"/></g><path d="M63-220v92h138v28H63V0H30v-248h175v28H63" id="bb"/><g id="w"><use transform="matrix(0.05,0,0,0.05,0,0)" xlink:href="#bb"/><use transform="matrix(0.05,0,0,0.05,10.950000000000001,0)" xlink:href="#ay"/><use transform="matrix(0.05,0,0,0.05,20.950000000000003,0)" xlink:href="#aw"/><use transform="matrix(0.05,0,0,0.05,30.950000000000003,0)" xlink:href="#am"/><use transform="matrix(0.05,0,0,0.05,35.95,0)" xlink:href="#aP"/><use transform="matrix(0.05,0,0,0.05,45.95,0)" xlink:href="#aA"/><use transform="matrix(0.05,0,0,0.05,51.900000000000006,0)" xlink:href="#ay"/><use transform="matrix(0.05,0,0,0.05,61.900000000000006,0)" xlink:href="#au"/></g><path d="M205 0l-28-72H64L36 0H1l101-248h38L239 0h-34zm-38-99l-47-123c-12 45-31 82-46 123h93" id="bc"/><path d="M115-194c55 1 70 41 70 98S169 2 115 4C84 4 66-9 55-30l1 105H24l-1-265h31l2 30c10-21 28-34 59-34zm-8 174c40 0 45-34 45-75s-6-73-45-74c-42 0-51 32-51 76 0 43 10 73 51 73" id="bd"/><g id="x"><use transform="matrix(0.05,0,0,0.05,0,0)" xlink:href="#bc"/><use transform="matrix(0.05,0,0,0.05,12,0)" xlink:href="#bd"/><use transform="matrix(0.05,0,0,0.05,22,0)" xlink:href="#bd"/><use transform="matrix(0.05,0,0,0.05,32,0)" xlink:href="#aM"/><use transform="matrix(0.05,0,0,0.05,35.95,0)" xlink:href="#at"/><use transform="matrix(0.05,0,0,0.05,39.900000000000006,0)" xlink:href="#aL"/><use transform="matrix(0.05,0,0,0.05,48.900000000000006,0)" xlink:href="#aw"/><use transform="matrix(0.05,0,0,0.05,58.900000000000006,0)" xlink:href="#am"/><use transform="matrix(0.05,0,0,0.05,63.900000000000006,0)" xlink:href="#at"/><use transform="matrix(0.05,0,0,0.05,67.85000000000001,0)" xlink:href="#ao"/><use transform="matrix(0.05,0,0,0.05,77.85000000000001,0)" xlink:href="#ap"/><use transform="matrix(0.05,0,0,0.05,87.85000000000001,0)" xlink:href="#au"/></g><path d="M232-93c-1 65-40 97-104 97C67 4 28-28 28-90v-158h33c8 89-33 224 67 224 102 0 64-133 71-224h33v155" id="be"/><g id="y"><use transform="matrix(0.05,0,0,0.05,0,0)" xlink:href="#be"/><use transform="matrix(0.05,0,0,0.05,12.950000000000001,0)" xlink:href="#am"/><use transform="matrix(0.05,0,0,0.05,17.950000000000003,0)" xlink:href="#at"/><use transform="matrix(0.05,0,0,0.05,21.900000000000002,0)" xlink:href="#aM"/><use transform="matrix(0.05,0,0,0.05,25.85,0)" xlink:href="#at"/><use transform="matrix(0.05,0,0,0.05,29.8,0)" xlink:href="#am"/><use transform="matrix(0.05,0,0,0.05,34.8,0)" xlink:href="#at"/><use transform="matrix(0.05,0,0,0.05,38.75,0)" xlink:href="#ay"/><use transform="matrix(0.05,0,0,0.05,48.75,0)" xlink:href="#au"/></g><g id="z"><use transform="matrix(0.05,0,0,0.05,0,0)" xlink:href="#as"/><use transform="matrix(0.05,0,0,0.05,8.950000000000001,0)" xlink:href="#ao"/><use transform="matrix(0.05,0,0,0.05,18.950000000000003,0)" xlink:href="#ao"/><use transform="matrix(0.05,0,0,0.05,28.950000000000003,0)" xlink:href="#aM"/><use transform="matrix(0.05,0,0,0.05,32.900000000000006,0)" xlink:href="#au"/></g><path d="M30-248c118-7 216 8 213 122C240-48 200 0 122 0H30v-248zM63-27c89 8 146-16 146-99s-60-101-146-95v194" id="bf"/><path d="M115-194c53 0 69 39 70 98 0 66-23 100-70 100C84 3 66-7 56-30L54 0H23l1-261h32v101c10-23 28-34 59-34zm-8 174c40 0 45-34 45-75 0-40-5-75-45-74-42 0-51 32-51 76 0 43 10 73 51 73" id="bg"/><g id="A"><use transform="matrix(0.05,0,0,0.05,0,0)" xlink:href="#bf"/><use transform="matrix(0.05,0,0,0.05,12.950000000000001,0)" xlink:href="#ay"/><use transform="matrix(0.05,0,0,0.05,22.950000000000003,0)" xlink:href="#bg"/><use transform="matrix(0.05,0,0,0.05,32.95,0)" xlink:href="#aP"/><use transform="matrix(0.05,0,0,0.05,42.95,0)" xlink:href="#aO"/><use transform="matrix(0.05,0,0,0.05,52.95,0)" xlink:href="#aO"/><use transform="matrix(0.05,0,0,0.05,62.95,0)" xlink:href="#at"/><use transform="matrix(0.05,0,0,0.05,66.9,0)" xlink:href="#ap"/><use transform="matrix(0.05,0,0,0.05,76.9,0)" xlink:href="#aO"/></g><g id="B"><use transform="matrix(0.05,0,0,0.05,0,0)" xlink:href="#ak"/><use transform="matrix(0.05,0,0,0.05,12,0)" xlink:href="#aA"/><use transform="matrix(0.05,0,0,0.05,17.95,0)" xlink:href="#ao"/><use transform="matrix(0.05,0,0,0.05,27.950000000000003,0)" xlink:href="#az"/><use transform="matrix(0.05,0,0,0.05,32.95,0)" xlink:href="#at"/><use transform="matrix(0.05,0,0,0.05,36.900000000000006,0)" xlink:href="#aM"/><use transform="matrix(0.05,0,0,0.05,40.85000000000001,0)" xlink:href="#at"/><use transform="matrix(0.05,0,0,0.05,44.80000000000001,0)" xlink:href="#ap"/><use transform="matrix(0.05,0,0,0.05,54.80000000000001,0)" xlink:href="#aO"/></g><path d="M240 0l2-218c-23 76-54 145-80 218h-23L58-218 59 0H30v-248h44l77 211c21-75 51-140 76-211h43V0h-30" id="bh"/><g id="C"><use transform="matrix(0.05,0,0,0.05,0,0)" xlink:href="#bh"/><use transform="matrix(0.05,0,0,0.05,14.950000000000001,0)" xlink:href="#ao"/><use transform="matrix(0.05,0,0,0.05,24.950000000000003,0)" xlink:href="#ap"/><use transform="matrix(0.05,0,0,0.05,34.95,0)" xlink:href="#at"/><use transform="matrix(0.05,0,0,0.05,38.900000000000006,0)" xlink:href="#am"/><use transform="matrix(0.05,0,0,0.05,43.900000000000006,0)" xlink:href="#ao"/><use transform="matrix(0.05,0,0,0.05,53.900000000000006,0)" xlink:href="#aA"/><use transform="matrix(0.05,0,0,0.05,59.85,0)" xlink:href="#at"/><use transform="matrix(0.05,0,0,0.05,63.80000000000001,0)" xlink:href="#ap"/><use transform="matrix(0.05,0,0,0.05,73.80000000000001,0)" xlink:href="#aO"/></g><path d="M25-224v-37h50v37H25zM25 0v-190h50V0H25" id="bi"/><path d="M128 0H69L1-190h53L99-40l48-150h52" id="bj"/><g id="D"><use transform="matrix(0.1111111111111111,0,0,0.1111111111111111,0,0)" xlink:href="#aU"/><use transform="matrix(0.1111111111111111,0,0,0.1111111111111111,24.333333333333332,0)" xlink:href="#bi"/><use transform="matrix(0.1111111111111111,0,0,0.1111111111111111,35.44444444444444,0)" xlink:href="#bj"/><use transform="matrix(0.1111111111111111,0,0,0.1111111111111111,57.666666666666664,0)" xlink:href="#ba"/></g><path d="M140-251c81 0 123 46 123 126C263-46 219 4 140 4 59 4 17-45 17-125s42-126 123-126zm0 227c63 0 89-41 89-101s-29-99-89-99c-61 0-89 39-89 99S79-25 140-24" id="bk"/><path d="M16-82v-28h88v28H16" id="bl"/><path d="M141 0L90-78 38 0H4l68-98-65-92h35l48 74 47-74h35l-64 92 68 98h-35" id="bm"/><g id="E"><use transform="matrix(0.05,0,0,0.05,0,0)" xlink:href="#bk"/><use transform="matrix(0.05,0,0,0.05,14,0)" xlink:href="#aP"/><use transform="matrix(0.05,0,0,0.05,24,0)" xlink:href="#am"/><use transform="matrix(0.05,0,0,0.05,29,0)" xlink:href="#bl"/><use transform="matrix(0.05,0,0,0.05,34.95,0)" xlink:href="#ao"/><use transform="matrix(0.05,0,0,0.05,44.95,0)" xlink:href="#az"/><use transform="matrix(0.05,0,0,0.05,49.95,0)" xlink:href="#bl"/><use transform="matrix(0.05,0,0,0.05,55.900000000000006,0)" xlink:href="#bg"/><use transform="matrix(0.05,0,0,0.05,65.9,0)" xlink:href="#ao"/><use transform="matrix(0.05,0,0,0.05,75.9,0)" xlink:href="#bm"/></g><g id="F"><use transform="matrix(0.05,0,0,0.05,0,0)" xlink:href="#ax"/><use transform="matrix(0.05,0,0,0.05,10,0)" xlink:href="#ay"/><use transform="matrix(0.05,0,0,0.05,20,0)" xlink:href="#bg"/><use transform="matrix(0.05,0,0,0.05,30,0)" xlink:href="#aP"/><use transform="matrix(0.05,0,0,0.05,40,0)" xlink:href="#aO"/><use transform="matrix(0.05,0,0,0.05,50,0)" xlink:href="#aO"/><use transform="matrix(0.05,0,0,0.05,60,0)" xlink:href="#at"/><use transform="matrix(0.05,0,0,0.05,63.95,0)" xlink:href="#ap"/><use transform="matrix(0.05,0,0,0.05,73.95,0)" xlink:href="#aO"/></g><g id="G"><use transform="matrix(0.05,0,0,0.05,0,0)" xlink:href="#bd"/><use transform="matrix(0.05,0,0,0.05,10,0)" xlink:href="#aA"/><use transform="matrix(0.05,0,0,0.05,15.949999999999998,0)" xlink:href="#ao"/><use transform="matrix(0.05,0,0,0.05,25.950000000000003,0)" xlink:href="#az"/><use transform="matrix(0.05,0,0,0.05,30.950000000000003,0)" xlink:href="#at"/><use transform="matrix(0.05,0,0,0.05,34.9,0)" xlink:href="#aM"/><use transform="matrix(0.05,0,0,0.05,38.85,0)" xlink:href="#at"/><use transform="matrix(0.05,0,0,0.05,42.800000000000004,0)" xlink:href="#ap"/><use transform="matrix(0.05,0,0,0.05,52.800000000000004,0)" xlink:href="#aO"/></g><g id="H"><use transform="matrix(0.05,0,0,0.05,0,0)" xlink:href="#am"/><use transform="matrix(0.05,0,0,0.05,5,0)" xlink:href="#ao"/><use transform="matrix(0.05,0,0,0.05,15,0)" xlink:href="#ao"/><use transform="matrix(0.05,0,0,0.05,25,0)" xlink:href="#aM"/><use transform="matrix(0.05,0,0,0.05,28.950000000000003,0)" xlink:href="#au"/></g><path d="M87 75C49 33 22-17 22-94c0-76 28-126 65-167h31c-38 41-64 92-64 168S80 34 118 75H87" id="bn"/><g id="I"><use transform="matrix(0.05,0,0,0.05,0,0)" xlink:href="#bn"/><use transform="matrix(0.05,0,0,0.05,5.95,0)" xlink:href="#be"/><use transform="matrix(0.05,0,0,0.05,18.900000000000002,0)" xlink:href="#au"/><use transform="matrix(0.05,0,0,0.05,27.900000000000002,0)" xlink:href="#ay"/></g><path d="M185-189c-5-48-123-54-124 2 14 75 158 14 163 119 3 78-121 87-175 55-17-10-28-26-33-46l33-7c5 56 141 63 141-1 0-78-155-14-162-118-5-82 145-84 179-34 5 7 8 16 11 25" id="bo"/><path d="M33-261c38 41 65 92 65 168S71 34 33 75H2C39 34 66-17 66-93S39-220 2-261h31" id="bp"/><g id="J"><use transform="matrix(0.05,0,0,0.05,0,0)" xlink:href="#bo"/><use transform="matrix(0.05,0,0,0.05,12,0)" xlink:href="#bf"/><use transform="matrix(0.05,0,0,0.05,24.950000000000003,0)" xlink:href="#bm"/><use transform="matrix(0.05,0,0,0.05,33.95,0)" xlink:href="#bp"/></g><g id="K"><use transform="matrix(0.05,0,0,0.05,0,0)" xlink:href="#ar"/><use transform="matrix(0.05,0,0,0.05,12.950000000000001,0)" xlink:href="#ay"/><use transform="matrix(0.05,0,0,0.05,22.950000000000003,0)" xlink:href="#aO"/><use transform="matrix(0.05,0,0,0.05,32.95,0)" xlink:href="#aP"/><use transform="matrix(0.05,0,0,0.05,42.95,0)" xlink:href="#aM"/><use transform="matrix(0.05,0,0,0.05,46.900000000000006,0)" xlink:href="#aw"/><use transform="matrix(0.05,0,0,0.05,56.900000000000006,0)" xlink:href="#aA"/></g><g id="L"><use transform="matrix(0.05,0,0,0.05,0,0)" xlink:href="#aw"/><use transform="matrix(0.05,0,0,0.05,10,0)" xlink:href="#aL"/><use transform="matrix(0.05,0,0,0.05,19,0)" xlink:href="#aL"/><use transform="matrix(0.05,0,0,0.05,28,0)" xlink:href="#ay"/><use transform="matrix(0.05,0,0,0.05,38,0)" xlink:href="#aM"/><use transform="matrix(0.05,0,0,0.05,41.95,0)" xlink:href="#ay"/><use transform="matrix(0.05,0,0,0.05,51.95,0)" xlink:href="#aA"/><use transform="matrix(0.05,0,0,0.05,57.900000000000006,0)" xlink:href="#aw"/><use transform="matrix(0.05,0,0,0.05,67.9,0)" xlink:href="#am"/><use transform="matrix(0.05,0,0,0.05,72.9,0)" xlink:href="#ao"/><use transform="matrix(0.05,0,0,0.05,82.9,0)" xlink:href="#aA"/></g><g id="M"><use transform="matrix(0.05,0,0,0.05,0,0)" xlink:href="#aA"/><use transform="matrix(0.05,0,0,0.05,5.95,0)" xlink:href="#aP"/><use transform="matrix(0.05,0,0,0.05,15.949999999999998,0)" xlink:href="#ap"/><use transform="matrix(0.05,0,0,0.05,25.950000000000003,0)" xlink:href="#am"/><use transform="matrix(0.05,0,0,0.05,30.950000000000003,0)" xlink:href="#at"/><use transform="matrix(0.05,0,0,0.05,34.9,0)" xlink:href="#av"/><use transform="matrix(0.05,0,0,0.05,49.85,0)" xlink:href="#ay"/></g><g id="N"><use transform="matrix(0.05,0,0,0.05,0,0)" xlink:href="#bn"/><use transform="matrix(0.05,0,0,0.05,5.95,0)" xlink:href="#be"/><use transform="matrix(0.05,0,0,0.05,18.900000000000002,0)" xlink:href="#au"/><use transform="matrix(0.05,0,0,0.05,27.900000000000002,0)" xlink:href="#ay"/></g><path d="M212-179c-10-28-35-45-73-45-59 0-87 40-87 99 0 60 29 101 89 101 43 0 62-24 78-52l27 14C228-24 195 4 139 4 59 4 22-46 18-125c-6-104 99-153 187-111 19 9 31 26 39 46" id="bq"/><path d="M30 0v-248h33v221h125V0H30" id="br"/><path d="M68-38c1 34 0 65-14 84H32c9-13 17-26 17-46H33v-38h35" id="bs"/><g id="O"><use transform="matrix(0.05,0,0,0.05,0,0)" xlink:href="#bk"/><use transform="matrix(0.05,0,0,0.05,14,0)" xlink:href="#bd"/><use transform="matrix(0.05,0,0,0.05,24,0)" xlink:href="#ay"/><use transform="matrix(0.05,0,0,0.05,34,0)" xlink:href="#ap"/><use transform="matrix(0.05,0,0,0.05,44,0)" xlink:href="#bq"/><use transform="matrix(0.05,0,0,0.05,56.95,0)" xlink:href="#br"/><use transform="matrix(0.05,0,0,0.05,66.95,0)" xlink:href="#bs"/></g><g id="P"><use transform="matrix(0.05,0,0,0.05,0,0)" xlink:href="#ao"/><use transform="matrix(0.05,0,0,0.05,10,0)" xlink:href="#aA"/></g><g id="Q"><use transform="matrix(0.05,0,0,0.05,0,0)" xlink:href="#ak"/><use transform="matrix(0.05,0,0,0.05,12,0)" xlink:href="#al"/><use transform="matrix(0.05,0,0,0.05,21,0)" xlink:href="#bk"/><use transform="matrix(0.05,0,0,0.05,35,0)" xlink:href="#bd"/><use transform="matrix(0.05,0,0,0.05,45,0)" xlink:href="#ay"/><use transform="matrix(0.05,0,0,0.05,55,0)" xlink:href="#ap"/><use transform="matrix(0.05,0,0,0.05,65,0)" xlink:href="#bq"/><use transform="matrix(0.05,0,0,0.05,77.95,0)" xlink:href="#br"/><use transform="matrix(0.05,0,0,0.05,87.95,0)" xlink:href="#bp"/></g><path d="M145-31C134-9 116 4 85 4 32 4 16-35 15-94c0-59 17-99 70-100 32-1 48 14 60 33 0-11-1-24 2-32h30l-1 268h-32zM93-21c41 0 51-33 51-76s-8-73-50-73c-40 0-46 35-46 75s5 74 45 74" id="bt"/><g id="R"><use transform="matrix(0.05,0,0,0.05,0,0)" xlink:href="#ar"/><use transform="matrix(0.05,0,0,0.05,12.950000000000001,0)" xlink:href="#ay"/><use transform="matrix(0.05,0,0,0.05,22.950000000000003,0)" xlink:href="#bt"/><use transform="matrix(0.05,0,0,0.05,32.95,0)" xlink:href="#aP"/><use transform="matrix(0.05,0,0,0.05,42.95,0)" xlink:href="#at"/><use transform="matrix(0.05,0,0,0.05,46.900000000000006,0)" xlink:href="#aA"/><use transform="matrix(0.05,0,0,0.05,52.85,0)" xlink:href="#ay"/><use transform="matrix(0.05,0,0,0.05,62.85,0)" xlink:href="#au"/></g><g id="S"><use transform="matrix(0.05,0,0,0.05,0,0)" xlink:href="#bd"/><use transform="matrix(0.05,0,0,0.05,10,0)" xlink:href="#aP"/><use transform="matrix(0.05,0,0,0.05,20,0)" xlink:href="#aA"/><use transform="matrix(0.05,0,0,0.05,25.950000000000003,0)" xlink:href="#ay"/></g><path d="M118-107v75H92v-75H18v-26h74v-75h26v75h74v26h-74" id="bu"/><g id="T"><use transform="matrix(0.05,0,0,0.05,0,0)" xlink:href="#bq"/><use transform="matrix(0.05,0,0,0.05,12.950000000000001,0)" xlink:href="#bu"/><use transform="matrix(0.05,0,0,0.05,23.450000000000003,0)" xlink:href="#bu"/></g><g id="U"><use transform="matrix(0.05,0,0,0.05,0,0)" xlink:href="#an"/><use transform="matrix(0.05,0,0,0.05,10,0)" xlink:href="#ao"/><use transform="matrix(0.05,0,0,0.05,20,0)" xlink:href="#au"/><use transform="matrix(0.05,0,0,0.05,29,0)" xlink:href="#am"/></g><g id="V"><use transform="matrix(0.05,0,0,0.05,0,0)" xlink:href="#aL"/><use transform="matrix(0.05,0,0,0.05,9,0)" xlink:href="#ao"/><use transform="matrix(0.05,0,0,0.05,19,0)" xlink:href="#ax"/><use transform="matrix(0.05,0,0,0.05,29,0)" xlink:href="#ay"/></g><g id="W"><use transform="matrix(0.05,0,0,0.05,0,0)" xlink:href="#bd"/><use transform="matrix(0.05,0,0,0.05,10,0)" xlink:href="#ay"/><use transform="matrix(0.05,0,0,0.05,20,0)" xlink:href="#aA"/><use transform="matrix(0.05,0,0,0.05,25.950000000000003,0)" xlink:href="#az"/><use transform="matrix(0.05,0,0,0.05,30.950000000000003,0)" xlink:href="#ao"/><use transform="matrix(0.05,0,0,0.05,40.95,0)" xlink:href="#aA"/><use transform="matrix(0.05,0,0,0.05,46.900000000000006,0)" xlink:href="#av"/><use transform="matrix(0.05,0,0,0.05,61.85,0)" xlink:href="#aw"/><use transform="matrix(0.05,0,0,0.05,71.85000000000001,0)" xlink:href="#ap"/><use transform="matrix(0.05,0,0,0.05,81.85000000000001,0)" xlink:href="#aL"/><use transform="matrix(0.05,0,0,0.05,90.85000000000001,0)" xlink:href="#ay"/></g><g id="X"><use transform="matrix(0.05,0,0,0.05,0,0)" xlink:href="#aS"/><use transform="matrix(0.05,0,0,0.05,9,0)" xlink:href="#aw"/><use transform="matrix(0.05,0,0,0.05,19,0)" xlink:href="#ap"/><use transform="matrix(0.05,0,0,0.05,29,0)" xlink:href="#at"/><use transform="matrix(0.05,0,0,0.05,32.95,0)" xlink:href="#aM"/><use transform="matrix(0.05,0,0,0.05,36.900000000000006,0)" xlink:href="#aM"/><use transform="matrix(0.05,0,0,0.05,40.85000000000001,0)" xlink:href="#aw"/></g><g id="Y"><use transform="matrix(0.05,0,0,0.05,0,0)" xlink:href="#aq"/><use transform="matrix(0.05,0,0,0.05,12,0)" xlink:href="#ar"/><use transform="matrix(0.05,0,0,0.05,24.6,0)" xlink:href="#as"/><use transform="matrix(0.05,0,0,0.05,35.550000000000004,0)" xlink:href="#bp"/></g><path d="M194 0L95-120 63-95V0H30v-248h33v124l119-124h40L117-140 236 0h-42" id="bv"/><g id="Z"><use transform="matrix(0.05,0,0,0.05,0,0)" xlink:href="#bv"/><use transform="matrix(0.05,0,0,0.05,12,0)" xlink:href="#ay"/><use transform="matrix(0.05,0,0,0.05,22,0)" xlink:href="#aA"/><use transform="matrix(0.05,0,0,0.05,27.950000000000003,0)" xlink:href="#ap"/><use transform="matrix(0.05,0,0,0.05,37.95,0)" xlink:href="#ay"/><use transform="matrix(0.05,0,0,0.05,47.95,0)" xlink:href="#aM"/></g><g id="aa"><use transform="matrix(0.05,0,0,0.05,0,0)" xlink:href="#ax"/><use transform="matrix(0.05,0,0,0.05,10,0)" xlink:href="#ay"/><use transform="matrix(0.05,0,0,0.05,20,0)" xlink:href="#aS"/><use transform="matrix(0.05,0,0,0.05,29,0)" xlink:href="#ay"/><use transform="matrix(0.05,0,0,0.05,39,0)" xlink:href="#aM"/><use transform="matrix(0.05,0,0,0.05,42.95,0)" xlink:href="#ao"/><use transform="matrix(0.05,0,0,0.05,52.95,0)" xlink:href="#bd"/><use transform="matrix(0.05,0,0,0.05,62.95,0)" xlink:href="#ay"/><use transform="matrix(0.05,0,0,0.05,72.95,0)" xlink:href="#aA"/><use transform="matrix(0.05,0,0,0.05,78.9,0)" xlink:href="#au"/></g><g id="ab"><use transform="matrix(0.05,0,0,0.05,0,0)" xlink:href="#bn"/><use transform="matrix(0.05,0,0,0.05,5.95,0)" xlink:href="#as"/><use transform="matrix(0.05,0,0,0.05,16.900000000000002,0)" xlink:href="#an"/><use transform="matrix(0.05,0,0,0.05,26.900000000000002,0)" xlink:href="#at"/><use transform="matrix(0.05,0,0,0.05,30.85,0)" xlink:href="#au"/></g><path d="M24-231v-30h32v30H24zM-9 49c24 4 33-6 33-30v-209h32V24c2 40-23 58-65 49V49" id="bw"/><g id="ac"><use transform="matrix(0.05,0,0,0.05,0,0)" xlink:href="#bd"/><use transform="matrix(0.05,0,0,0.05,10,0)" xlink:href="#aA"/><use transform="matrix(0.05,0,0,0.05,15.949999999999998,0)" xlink:href="#ao"/><use transform="matrix(0.05,0,0,0.05,25.950000000000003,0)" xlink:href="#bw"/><use transform="matrix(0.05,0,0,0.05,29.899999999999995,0)" xlink:href="#ay"/><use transform="matrix(0.05,0,0,0.05,39.9,0)" xlink:href="#aL"/><use transform="matrix(0.05,0,0,0.05,48.9,0)" xlink:href="#am"/></g><g id="ad"><use transform="matrix(0.05,0,0,0.05,0,0)" xlink:href="#ao"/><use transform="matrix(0.05,0,0,0.05,10,0)" xlink:href="#ap"/><use transform="matrix(0.05,0,0,0.05,20,0)" xlink:href="#aM"/><use transform="matrix(0.05,0,0,0.05,23.95,0)" xlink:href="#al"/></g><g id="ae"><use transform="matrix(0.05,0,0,0.05,0,0)" xlink:href="#ax"/><use transform="matrix(0.05,0,0,0.05,10,0)" xlink:href="#ay"/><use transform="matrix(0.05,0,0,0.05,20,0)" xlink:href="#aw"/><use transform="matrix(0.05,0,0,0.05,30,0)" xlink:href="#aM"/></g><g id="af"><use transform="matrix(0.05,0,0,0.05,0,0)" xlink:href="#aN"/><use transform="matrix(0.05,0,0,0.05,12.950000000000001,0)" xlink:href="#at"/><use transform="matrix(0.05,0,0,0.05,16.900000000000002,0)" xlink:href="#am"/><use transform="matrix(0.05,0,0,0.05,21.900000000000002,0)" xlink:href="#an"/></g><g id="ag"><use transform="matrix(0.05,0,0,0.05,0,0)" xlink:href="#au"/><use transform="matrix(0.05,0,0,0.05,9,0)" xlink:href="#at"/><use transform="matrix(0.05,0,0,0.05,12.949999999999998,0)" xlink:href="#ax"/><use transform="matrix(0.05,0,0,0.05,22.95,0)" xlink:href="#ay"/><use transform="matrix(0.05,0,0,0.05,32.95,0)" xlink:href="#bp"/></g><path d="M30 0v-248h187v28H63v79h144v27H63v87h162V0H30" id="bx"/><g id="ah"><use transform="matrix(0.05,0,0,0.05,0,0)" xlink:href="#bx"/><use transform="matrix(0.05,0,0,0.05,12,0)" xlink:href="#aw"/><use transform="matrix(0.05,0,0,0.05,22,0)" xlink:href="#au"/><use transform="matrix(0.05,0,0,0.05,31,0)" xlink:href="#al"/></g><g id="ai"><use transform="matrix(0.05,0,0,0.05,0,0)" xlink:href="#aL"/><use transform="matrix(0.05,0,0,0.05,9,0)" xlink:href="#ao"/><use transform="matrix(0.05,0,0,0.05,19,0)" xlink:href="#ap"/><use transform="matrix(0.05,0,0,0.05,29,0)" xlink:href="#aL"/><use transform="matrix(0.05,0,0,0.05,38,0)" xlink:href="#aP"/><use transform="matrix(0.05,0,0,0.05,48,0)" xlink:href="#aA"/><use transform="matrix(0.05,0,0,0.05,53.95,0)" xlink:href="#aA"/><use transform="matrix(0.05,0,0,0.05,59.900000000000006,0)" xlink:href="#ay"/><use transform="matrix(0.05,0,0,0.05,69.9,0)" xlink:href="#ap"/><use transform="matrix(0.05,0,0,0.05,79.9,0)" xlink:href="#aL"/><use transform="matrix(0.05,0,0,0.05,88.9,0)" xlink:href="#al"/></g><g id="aj"><use transform="matrix(0.05,0,0,0.05,0,0)" xlink:href="#bk"/><use transform="matrix(0.05,0,0,0.05,14,0)" xlink:href="#bd"/><use transform="matrix(0.05,0,0,0.05,24,0)" xlink:href="#ay"/><use transform="matrix(0.05,0,0,0.05,34,0)" xlink:href="#ap"/><use transform="matrix(0.05,0,0,0.05,44,0)" xlink:href="#bq"/><use transform="matrix(0.05,0,0,0.05,56.95,0)" xlink:href="#br"/><use transform="matrix(0.05,0,0,0.05,66.95,0)" xlink:href="#bp"/></g></defs></g></svg>